<svg width="60" height="56" viewBox="0 0 60 56" fill="none" xmlns="http://www.w3.org/2000/svg">
<path d="M43 26C43 26.2652 42.8946 26.5196 42.7071 26.7071C42.5196 26.8946 42.2652 27 42 27H18C17.7348 27 17.4804 26.8946 17.2929 26.7071C17.1054 26.5196 17 26.2652 17 26V6C17 5.73478 17.1054 5.48043 17.2929 5.29289C17.4804 5.10536 17.7348 5 18 5C18.2652 5 18.5196 5.10536 18.7071 5.29289C18.8946 5.48043 19 5.73478 19 6V19.5863L25.2925 13.2925C25.3854 13.1995 25.4957 13.1258 25.6171 13.0754C25.7385 13.0251 25.8686 12.9992 26 12.9992C26.1314 12.9992 26.2615 13.0251 26.3829 13.0754C26.5043 13.1258 26.6146 13.1995 26.7075 13.2925L30 16.5863L36.5863 10H34C33.7348 10 33.4804 9.89464 33.2929 9.70711C33.1054 9.51957 33 9.26522 33 9C33 8.73478 33.1054 8.48043 33.2929 8.29289C33.4804 8.10536 33.7348 8 34 8H39C39.2652 8 39.5196 8.10536 39.7071 8.29289C39.8946 8.48043 40 8.73478 40 9V14C40 14.2652 39.8946 14.5196 39.7071 14.7071C39.5196 14.8946 39.2652 15 39 15C38.7348 15 38.4804 14.8946 38.2929 14.7071C38.1054 14.5196 38 14.2652 38 14V11.4137L30.7075 18.7075C30.6146 18.8005 30.5043 18.8742 30.3829 18.9246C30.2615 18.9749 30.1314 19.0008 30 19.0008C29.8686 19.0008 29.7385 18.9749 29.6171 18.9246C29.4957 18.8742 29.3854 18.8005 29.2925 18.7075L26 15.4137L19 22.4137V25H42C42.2652 25 42.5196 25.1054 42.7071 25.2929C42.8946 25.4804 43 25.7348 43 26Z" fill="#808DB2"/>
<path d="M2.25255 51C2.14988 51 2.06588 50.9673 2.00055 50.902C1.93521 50.8367 1.90255 50.7573 1.90255 50.664V41.55C1.90255 41.4473 1.93521 41.3633 2.00055 41.298C2.06588 41.2327 2.14988 41.2 2.25255 41.2H3.35855C3.48921 41.2 3.58721 41.2373 3.65255 41.312C3.71788 41.3773 3.75988 41.4287 3.77855 41.466L6.48055 46.506L9.21055 41.466C9.22921 41.4287 9.27121 41.3773 9.33655 41.312C9.40188 41.2373 9.49988 41.2 9.63055 41.2H10.7225C10.8252 41.2 10.9092 41.2327 10.9745 41.298C11.0399 41.3633 11.0725 41.4473 11.0725 41.55V50.664C11.0725 50.7573 11.0399 50.8367 10.9745 50.902C10.9092 50.9673 10.8252 51 10.7225 51H9.54655C9.44388 51 9.35988 50.9673 9.29455 50.902C9.23855 50.8367 9.21055 50.7573 9.21055 50.664V44.602L7.25055 48.34C7.20388 48.424 7.14321 48.4987 7.06855 48.564C6.99388 48.62 6.89588 48.648 6.77455 48.648H6.20055C6.06988 48.648 5.96721 48.62 5.89255 48.564C5.82721 48.4987 5.77121 48.424 5.72455 48.34L3.76455 44.602V50.664C3.76455 50.7573 3.73188 50.8367 3.66655 50.902C3.60121 50.9673 3.52188 51 3.42855 51H2.25255ZM16.2182 51.14C15.1822 51.14 14.3609 50.8413 13.7542 50.244C13.1475 49.6467 12.8209 48.7973 12.7742 47.696C12.7649 47.6027 12.7602 47.486 12.7602 47.346C12.7602 47.1967 12.7649 47.08 12.7742 46.996C12.8115 46.296 12.9702 45.6893 13.2502 45.176C13.5395 44.6627 13.9362 44.2707 14.4402 44C14.9442 43.72 15.5369 43.58 16.2182 43.58C16.9742 43.58 17.6089 43.7387 18.1222 44.056C18.6355 44.364 19.0229 44.798 19.2842 45.358C19.5455 45.9087 19.6762 46.548 19.6762 47.276V47.57C19.6762 47.6633 19.6435 47.7427 19.5782 47.808C19.5129 47.8733 19.4289 47.906 19.3262 47.906H14.6782C14.6782 47.906 14.6782 47.92 14.6782 47.948C14.6782 47.976 14.6782 47.9993 14.6782 48.018C14.6875 48.3447 14.7482 48.648 14.8602 48.928C14.9815 49.1987 15.1542 49.418 15.3782 49.586C15.6115 49.754 15.8869 49.838 16.2042 49.838C16.4655 49.838 16.6849 49.8007 16.8622 49.726C17.0395 49.642 17.1842 49.5487 17.2962 49.446C17.4082 49.3433 17.4875 49.2593 17.5342 49.194C17.6182 49.082 17.6835 49.0167 17.7302 48.998C17.7862 48.97 17.8655 48.956 17.9682 48.956H19.1722C19.2655 48.956 19.3402 48.984 19.3962 49.04C19.4615 49.096 19.4895 49.166 19.4802 49.25C19.4709 49.3993 19.3915 49.5813 19.2422 49.796C19.1022 50.0107 18.8969 50.2207 18.6262 50.426C18.3555 50.6313 18.0149 50.804 17.6042 50.944C17.2029 51.0747 16.7409 51.14 16.2182 51.14ZM14.6782 46.73H17.7722V46.688C17.7722 46.324 17.7115 46.0067 17.5902 45.736C17.4689 45.4653 17.2915 45.2507 17.0582 45.092C16.8249 44.9333 16.5449 44.854 16.2182 44.854C15.8915 44.854 15.6115 44.9333 15.3782 45.092C15.1449 45.2507 14.9675 45.4653 14.8462 45.736C14.7342 46.0067 14.6782 46.324 14.6782 46.688V46.73ZM15.6162 42.67C15.4669 42.67 15.3922 42.5953 15.3922 42.446C15.3922 42.3713 15.4155 42.3107 15.4622 42.264L16.5962 40.878C16.6895 40.7753 16.7689 40.71 16.8342 40.682C16.8995 40.6447 16.9929 40.626 17.1142 40.626H18.5142C18.6915 40.626 18.7802 40.7147 18.7802 40.892C18.7802 40.9573 18.7569 41.0133 18.7102 41.06L16.9742 42.488C16.8995 42.5533 16.8249 42.6 16.7502 42.628C16.6849 42.656 16.5915 42.67 16.4702 42.67H15.6162ZM24.4249 51C23.8649 51 23.3936 50.902 23.0109 50.706C22.6283 50.51 22.3436 50.2207 22.1569 49.838C21.9703 49.446 21.8769 48.9607 21.8769 48.382V45.204H20.7709C20.6776 45.204 20.5983 45.1713 20.5329 45.106C20.4676 45.0407 20.4349 44.9613 20.4349 44.868V44.056C20.4349 43.9627 20.4676 43.8833 20.5329 43.818C20.5983 43.7527 20.6776 43.72 20.7709 43.72H21.8769V41.396C21.8769 41.3027 21.9049 41.2233 21.9609 41.158C22.0263 41.0927 22.1103 41.06 22.2129 41.06H23.3469C23.4403 41.06 23.5196 41.0927 23.5849 41.158C23.6503 41.2233 23.6829 41.3027 23.6829 41.396V43.72H25.4329C25.5263 43.72 25.6056 43.7527 25.6709 43.818C25.7363 43.8833 25.7689 43.9627 25.7689 44.056V44.868C25.7689 44.9613 25.7363 45.0407 25.6709 45.106C25.6056 45.1713 25.5263 45.204 25.4329 45.204H23.6829V48.242C23.6829 48.6247 23.7483 48.9233 23.8789 49.138C24.0189 49.3527 24.2569 49.46 24.5929 49.46H25.5589C25.6523 49.46 25.7316 49.4927 25.7969 49.558C25.8623 49.6233 25.8949 49.7027 25.8949 49.796V50.664C25.8949 50.7573 25.8623 50.8367 25.7969 50.902C25.7316 50.9673 25.6523 51 25.5589 51H24.4249ZM27.4729 51C27.3796 51 27.3002 50.9673 27.2349 50.902C27.1696 50.8367 27.1369 50.7573 27.1369 50.664V44.07C27.1369 43.9673 27.1696 43.8833 27.2349 43.818C27.3002 43.7527 27.3796 43.72 27.4729 43.72H28.6069C28.7002 43.72 28.7796 43.7527 28.8449 43.818C28.9196 43.8833 28.9569 43.9673 28.9569 44.07V44.644C29.1716 44.3453 29.4469 44.1167 29.7829 43.958C30.1282 43.7993 30.5249 43.72 30.9729 43.72H31.5469C31.6496 43.72 31.7289 43.7527 31.7849 43.818C31.8502 43.8833 31.8829 43.9627 31.8829 44.056V45.064C31.8829 45.1573 31.8502 45.2367 31.7849 45.302C31.7289 45.3673 31.6496 45.4 31.5469 45.4H30.4549C30.0069 45.4 29.6569 45.526 29.4049 45.778C29.1622 46.03 29.0409 46.3753 29.0409 46.814V50.664C29.0409 50.7573 29.0082 50.8367 28.9429 50.902C28.8776 50.9673 28.7936 51 28.6909 51H27.4729ZM33.3108 51C33.2174 51 33.1381 50.9673 33.0728 50.902C33.0074 50.8367 32.9748 50.7573 32.9748 50.664V44.056C32.9748 43.9627 33.0074 43.8833 33.0728 43.818C33.1381 43.7527 33.2174 43.72 33.3108 43.72H34.4728C34.5754 43.72 34.6548 43.7527 34.7108 43.818C34.7761 43.8833 34.8088 43.9627 34.8088 44.056V50.664C34.8088 50.7573 34.7761 50.8367 34.7108 50.902C34.6548 50.9673 34.5754 51 34.4728 51H33.3108ZM33.2548 42.516C33.1521 42.516 33.0681 42.488 33.0028 42.432C32.9468 42.3667 32.9188 42.2827 32.9188 42.18V41.172C32.9188 41.0787 32.9468 40.9993 33.0028 40.934C33.0681 40.8687 33.1521 40.836 33.2548 40.836H34.5288C34.6314 40.836 34.7154 40.8687 34.7808 40.934C34.8461 40.9993 34.8788 41.0787 34.8788 41.172V42.18C34.8788 42.2827 34.8461 42.3667 34.7808 42.432C34.7154 42.488 34.6314 42.516 34.5288 42.516H33.2548ZM39.8162 51.14C39.1442 51.14 38.5515 51.014 38.0382 50.762C37.5342 50.51 37.1375 50.146 36.8482 49.67C36.5682 49.1847 36.4142 48.6013 36.3862 47.92C36.3769 47.78 36.3722 47.598 36.3722 47.374C36.3722 47.1407 36.3769 46.9493 36.3862 46.8C36.4142 46.1187 36.5682 45.54 36.8482 45.064C37.1375 44.5787 37.5342 44.21 38.0382 43.958C38.5515 43.706 39.1442 43.58 39.8162 43.58C40.4135 43.58 40.9222 43.664 41.3422 43.832C41.7622 44 42.1075 44.21 42.3782 44.462C42.6489 44.714 42.8495 44.98 42.9802 45.26C43.1202 45.5307 43.1949 45.778 43.2042 46.002C43.2135 46.1047 43.1809 46.1887 43.1062 46.254C43.0409 46.31 42.9615 46.338 42.8682 46.338H41.6362C41.5429 46.338 41.4682 46.3147 41.4122 46.268C41.3655 46.2213 41.3189 46.1513 41.2722 46.058C41.1322 45.6847 40.9455 45.4233 40.7122 45.274C40.4882 45.1153 40.1989 45.036 39.8442 45.036C39.3775 45.036 39.0042 45.1853 38.7242 45.484C38.4535 45.7733 38.3089 46.2353 38.2902 46.87C38.2715 47.2247 38.2715 47.5513 38.2902 47.85C38.3089 48.494 38.4535 48.9607 38.7242 49.25C39.0042 49.5393 39.3775 49.684 39.8442 49.684C40.2082 49.684 40.5022 49.6093 40.7262 49.46C40.9502 49.3013 41.1322 49.0353 41.2722 48.662C41.3189 48.5687 41.3655 48.4987 41.4122 48.452C41.4682 48.4053 41.5429 48.382 41.6362 48.382H42.8682C42.9615 48.382 43.0409 48.4147 43.1062 48.48C43.1809 48.536 43.2135 48.6153 43.2042 48.718C43.1949 48.886 43.1482 49.0773 43.0642 49.292C42.9895 49.4973 42.8635 49.712 42.6862 49.936C42.5182 50.1507 42.3035 50.3513 42.0422 50.538C41.7809 50.7153 41.4635 50.86 41.0902 50.972C40.7262 51.084 40.3015 51.14 39.8162 51.14ZM46.7782 51.14C46.2929 51.14 45.8542 51.0467 45.4622 50.86C45.0702 50.664 44.7576 50.4073 44.5242 50.09C44.3002 49.7633 44.1882 49.3993 44.1882 48.998C44.1882 48.3447 44.4496 47.8267 44.9722 47.444C45.5042 47.052 46.2042 46.7907 47.0722 46.66L48.9902 46.38V46.086C48.9902 45.694 48.8922 45.3907 48.6962 45.176C48.5002 44.9613 48.1642 44.854 47.6882 44.854C47.3522 44.854 47.0769 44.924 46.8622 45.064C46.6569 45.1947 46.5029 45.372 46.4002 45.596C46.3256 45.7173 46.2182 45.778 46.0782 45.778H44.9722C44.8696 45.778 44.7902 45.75 44.7342 45.694C44.6876 45.638 44.6642 45.5633 44.6642 45.47C44.6736 45.3207 44.7342 45.1387 44.8462 44.924C44.9582 44.7093 45.1356 44.504 45.3782 44.308C45.6209 44.1027 45.9336 43.93 46.3162 43.79C46.6989 43.65 47.1609 43.58 47.7022 43.58C48.2902 43.58 48.7849 43.6547 49.1862 43.804C49.5969 43.944 49.9236 44.1353 50.1662 44.378C50.4089 44.6207 50.5862 44.9053 50.6982 45.232C50.8102 45.5587 50.8662 45.904 50.8662 46.268V50.664C50.8662 50.7573 50.8336 50.8367 50.7682 50.902C50.7029 50.9673 50.6236 51 50.5302 51H49.3962C49.2936 51 49.2096 50.9673 49.1442 50.902C49.0882 50.8367 49.0602 50.7573 49.0602 50.664V50.118C48.9389 50.2953 48.7756 50.4633 48.5702 50.622C48.3649 50.7713 48.1129 50.8973 47.8142 51C47.5249 51.0933 47.1796 51.14 46.7782 51.14ZM47.2542 49.81C47.5809 49.81 47.8749 49.74 48.1362 49.6C48.4069 49.46 48.6169 49.2453 48.7662 48.956C48.9249 48.6573 49.0042 48.284 49.0042 47.836V47.542L47.6042 47.766C47.0536 47.85 46.6429 47.9853 46.3722 48.172C46.1016 48.3587 45.9662 48.5873 45.9662 48.858C45.9662 49.0633 46.0269 49.2407 46.1482 49.39C46.2789 49.53 46.4422 49.6373 46.6382 49.712C46.8342 49.7773 47.0396 49.81 47.2542 49.81ZM55.4203 51.14C54.8603 51.14 54.3796 51.0747 53.9783 50.944C53.5863 50.8133 53.2643 50.65 53.0123 50.454C52.7603 50.258 52.5736 50.062 52.4523 49.866C52.3309 49.67 52.2656 49.5067 52.2563 49.376C52.2469 49.2733 52.2749 49.194 52.3403 49.138C52.4149 49.0727 52.4943 49.04 52.5783 49.04H53.6843C53.7216 49.04 53.7543 49.0447 53.7823 49.054C53.8103 49.0633 53.8476 49.0913 53.8943 49.138C54.0156 49.2407 54.1416 49.348 54.2723 49.46C54.4123 49.572 54.5756 49.67 54.7623 49.754C54.9489 49.8287 55.1823 49.866 55.4623 49.866C55.8263 49.866 56.1296 49.796 56.3723 49.656C56.6243 49.5067 56.7503 49.2967 56.7503 49.026C56.7503 48.83 56.6943 48.6713 56.5823 48.55C56.4796 48.4287 56.2836 48.3213 55.9943 48.228C55.7049 48.1253 55.2943 48.018 54.7623 47.906C54.2396 47.7847 53.8056 47.6307 53.4603 47.444C53.1149 47.2573 52.8583 47.024 52.6903 46.744C52.5223 46.464 52.4383 46.1373 52.4383 45.764C52.4383 45.4 52.5456 45.0547 52.7603 44.728C52.9843 44.392 53.3109 44.1167 53.7403 43.902C54.1789 43.6873 54.7203 43.58 55.3643 43.58C55.8683 43.58 56.3069 43.6453 56.6803 43.776C57.0536 43.8973 57.3616 44.0513 57.6043 44.238C57.8563 44.4247 58.0476 44.616 58.1783 44.812C58.3089 44.9987 58.3789 45.162 58.3883 45.302C58.3976 45.4047 58.3696 45.4887 58.3043 45.554C58.2389 45.61 58.1643 45.638 58.0803 45.638H57.0443C56.9976 45.638 56.9556 45.6287 56.9183 45.61C56.8809 45.5913 56.8436 45.568 56.8063 45.54C56.7036 45.4467 56.5916 45.3487 56.4703 45.246C56.3489 45.1433 56.1996 45.0547 56.0223 44.98C55.8543 44.896 55.6303 44.854 55.3503 44.854C54.9956 44.854 54.7249 44.9333 54.5383 45.092C54.3516 45.2413 54.2583 45.4327 54.2583 45.666C54.2583 45.8247 54.3003 45.9647 54.3843 46.086C54.4776 46.198 54.6596 46.3053 54.9303 46.408C55.2009 46.5107 55.6116 46.618 56.1623 46.73C56.7876 46.842 57.2823 47.01 57.6463 47.234C58.0196 47.4487 58.2809 47.7007 58.4303 47.99C58.5889 48.27 58.6683 48.5827 58.6683 48.928C58.6683 49.348 58.5423 49.726 58.2903 50.062C58.0476 50.398 57.6836 50.664 57.1983 50.86C56.7223 51.0467 56.1296 51.14 55.4203 51.14Z" fill="#808DB2"/>
</svg>
