<svg width="16" height="17" viewBox="0 0 16 17" fill="none" xmlns="http://www.w3.org/2000/svg">
<path d="M7.8125 0.875C5.74119 0.877275 3.75538 1.70111 2.29074 3.16574C0.826105 4.63038 0.00227469 6.61619 0 8.6875V15.25C0 15.5815 0.131696 15.8995 0.366116 16.1339C0.600537 16.3683 0.918479 16.5 1.25 16.5H7.8125C9.8845 16.5 11.8716 15.6769 13.3368 14.2118C14.8019 12.7466 15.625 10.7595 15.625 8.6875C15.625 6.6155 14.8019 4.62836 13.3368 3.16323C11.8716 1.6981 9.8845 0.875 7.8125 0.875ZM7.8125 15.25H1.25V8.6875C1.25 7.38956 1.63488 6.12077 2.35598 5.04157C3.07708 3.96237 4.102 3.12124 5.30114 2.62454C6.50028 2.12784 7.81978 1.99788 9.09278 2.2511C10.3658 2.50431 11.5351 3.12933 12.4529 4.04711C13.3707 4.96489 13.9957 6.13422 14.2489 7.40722C14.5021 8.68022 14.3722 9.99972 13.8755 11.1989C13.3788 12.398 12.5376 13.4229 11.4584 14.144C10.3792 14.8651 9.11044 15.25 7.8125 15.25Z" fill="#FCFDFF"/>
</svg>
