<svg width="20" height="20" viewBox="0 0 20 20" fill="none" xmlns="http://www.w3.org/2000/svg">
<path d="M17.5 10.625C17.182 14.475 13.932 17.5 10 17.5C8.01088 17.5 6.10322 16.7098 4.6967 15.3033C3.29018 13.8968 2.5 11.9891 2.5 10C2.5 6.06797 5.525 2.81797 9.375 2.5" stroke="#BE6100" stroke-linecap="round" stroke-linejoin="round"/>
<path d="M10 5.625V10H14.375" stroke="#BE6100" stroke-linecap="round" stroke-linejoin="round"/>
<path d="M12.5 2.53125C12.6553 2.53125 12.7812 2.65717 12.7812 2.8125C12.7812 2.96783 12.6553 3.09375 12.5 3.09375C12.3447 3.09375 12.2188 2.96783 12.2188 2.8125C12.2188 2.65717 12.3447 2.53125 12.5 2.53125Z" fill="#BE6100" stroke="#BE6100"/>
<path d="M15.3125 4.40625C15.4678 4.40625 15.5938 4.53217 15.5938 4.6875C15.5938 4.84283 15.4678 4.96875 15.3125 4.96875C15.1572 4.96875 15.0312 4.84283 15.0312 4.6875C15.0312 4.53217 15.1572 4.40625 15.3125 4.40625Z" fill="#BE6100" stroke="#BE6100"/>
<path d="M17.1875 7.21875C17.3428 7.21875 17.4688 7.34467 17.4688 7.5C17.4688 7.65533 17.3428 7.78125 17.1875 7.78125C17.0322 7.78125 16.9062 7.65533 16.9062 7.5C16.9062 7.34467 17.0322 7.21875 17.1875 7.21875Z" fill="#BE6100" stroke="#BE6100"/>
</svg>
