<svg width="32" height="32" viewBox="0 0 32 32" fill="none" xmlns="http://www.w3.org/2000/svg">
<path opacity="0.2" d="M26 9.5V19C26 20.3132 25.7414 21.6136 25.2388 22.8268C24.7363 24.0401 23.9997 25.1425 23.0711 26.0711C22.1425 26.9997 21.0401 27.7362 19.8268 28.2388C18.6136 28.7413 17.3132 29 16 29C10.4775 29 8.40626 26.34 4.33501 17.75C4.00872 17.1761 3.92267 16.4964 4.09564 15.8593C4.26861 15.2222 4.68656 14.6794 5.25828 14.3493C5.83 14.0192 6.50907 13.9287 7.14731 14.0974C7.78555 14.2661 8.33114 14.6805 8.66501 15.25L11 19V7.5C11 6.83696 11.2634 6.20107 11.7322 5.73223C12.2011 5.26339 12.837 5 13.5 5C14.1631 5 14.7989 5.26339 15.2678 5.73223C15.7366 6.20107 16 6.83696 16 7.5V5.5C16 4.83696 16.2634 4.20107 16.7322 3.73223C17.2011 3.26339 17.837 3 18.5 3C19.1631 3 19.7989 3.26339 20.2678 3.73223C20.7366 4.20107 21 4.83696 21 5.5V9.5C21 8.83696 21.2634 8.20107 21.7322 7.73223C22.2011 7.26339 22.837 7 23.5 7C24.1631 7 24.7989 7.26339 25.2678 7.73223C25.7366 8.20107 26 8.83696 26 9.5Z" fill="#808DB2"/>
<path d="M23.5 6.00036C22.981 5.99963 22.4684 6.11539 22 6.33911V5.50036C22.0003 4.66617 21.7027 3.8593 21.1607 3.22514C20.6188 2.59099 19.8681 2.17126 19.0441 2.04158C18.2201 1.9119 17.3768 2.08081 16.6663 2.51787C15.9557 2.95493 15.4247 3.63139 15.1688 4.42536C14.6358 4.13626 14.0368 3.99059 13.4306 4.00262C12.8243 4.01465 12.2316 4.18397 11.7105 4.49398C11.1894 4.804 10.7578 5.24408 10.4579 5.7711C10.1581 6.29812 10.0003 6.89401 10 7.50036V15.5004L9.52252 14.7341C9.05872 13.9337 8.29693 13.3495 7.40365 13.1091C6.51037 12.8688 5.55826 12.9918 4.75544 13.4514C3.95261 13.9109 3.36437 14.6696 3.11928 15.5616C2.8742 16.4536 2.99221 17.4064 3.44752 18.2116C5.44752 22.4329 7.06377 25.4266 8.91252 27.2979C10.78 29.1929 12.9 30.0004 16 30.0004C18.9164 29.997 21.7124 28.8371 23.7745 26.7749C25.8367 24.7127 26.9967 21.9167 27 19.0004V9.50036C27 8.5721 26.6313 7.68186 25.9749 7.02549C25.3185 6.36911 24.4283 6.00036 23.5 6.00036ZM25 19.0004C24.9974 21.3865 24.0483 23.6741 22.3611 25.3614C20.6738 27.0487 18.3862 27.9977 16 28.0004C13.4525 28.0004 11.8113 27.3904 10.3338 25.8941C8.68002 24.2179 7.15752 21.3754 5.23752 17.3229C5.22627 17.2981 5.21375 17.2739 5.20002 17.2504C5.00111 16.9057 4.94724 16.4962 5.05027 16.1119C5.1533 15.7276 5.40478 15.3999 5.74939 15.201C6.09401 15.0021 6.50353 14.9482 6.88786 15.0512C7.27219 15.1543 7.59986 15.4057 7.79877 15.7504C7.80386 15.7604 7.80971 15.77 7.81627 15.7791L10.15 19.5291C10.2647 19.7141 10.4365 19.8566 10.6395 19.9351C10.8425 20.0135 11.0656 20.0236 11.2748 19.9638C11.4841 19.904 11.6681 19.7776 11.799 19.6037C11.9299 19.4298 12.0004 19.218 12 19.0004V7.50036C12 7.10253 12.1581 6.721 12.4394 6.4397C12.7207 6.15839 13.1022 6.00036 13.5 6.00036C13.8978 6.00036 14.2794 6.15839 14.5607 6.4397C14.842 6.721 15 7.10253 15 7.50036V15.0004C15 15.2656 15.1054 15.5199 15.2929 15.7075C15.4804 15.895 15.7348 16.0004 16 16.0004C16.2652 16.0004 16.5196 15.895 16.7071 15.7075C16.8947 15.5199 17 15.2656 17 15.0004V5.50036C17 5.10253 17.1581 4.721 17.4394 4.4397C17.7207 4.15839 18.1022 4.00036 18.5 4.00036C18.8978 4.00036 19.2794 4.15839 19.5607 4.4397C19.842 4.721 20 5.10253 20 5.50036V15.0004C20 15.2656 20.1054 15.5199 20.2929 15.7075C20.4804 15.895 20.7348 16.0004 21 16.0004C21.2652 16.0004 21.5196 15.895 21.7071 15.7075C21.8947 15.5199 22 15.2656 22 15.0004V9.50036C22 9.10253 22.1581 8.721 22.4394 8.4397C22.7207 8.15839 23.1022 8.00036 23.5 8.00036C23.8978 8.00036 24.2794 8.15839 24.5607 8.4397C24.842 8.721 25 9.10253 25 9.50036V19.0004Z" fill="#808DB2"/>
</svg>
