<svg width="60" height="56" viewBox="0 0 60 56" fill="none" xmlns="http://www.w3.org/2000/svg">
<path d="M41.4137 13.5848L31.4137 3.58483C31.0387 3.21005 30.5302 2.99951 30 2.99951C29.4698 2.99951 28.9613 3.21005 28.5862 3.58483L18.5862 13.5848C18.3996 13.7701 18.2517 13.9906 18.1511 14.2335C18.0504 14.4764 17.9991 14.7369 18 14.9998V26.9998C18 27.2651 18.1054 27.5194 18.2929 27.7069C18.4804 27.8945 18.7348 27.9998 19 27.9998H27C27.2652 27.9998 27.5196 27.8945 27.7071 27.7069C27.8946 27.5194 28 27.2651 28 26.9998V19.9998H32V26.9998C32 27.2651 32.1054 27.5194 32.2929 27.7069C32.4804 27.8945 32.7348 27.9998 33 27.9998H41C41.2652 27.9998 41.5196 27.8945 41.7071 27.7069C41.8946 27.5194 42 27.2651 42 26.9998V14.9998C42.0009 14.7369 41.9496 14.4764 41.8489 14.2335C41.7483 13.9906 41.6004 13.7701 41.4137 13.5848ZM40 25.9998H34V18.9998C34 18.7346 33.8946 18.4803 33.7071 18.2927C33.5196 18.1052 33.2652 17.9998 33 17.9998H27C26.7348 17.9998 26.4804 18.1052 26.2929 18.2927C26.1054 18.4803 26 18.7346 26 18.9998V25.9998H20V14.9998L30 4.99983L40 14.9998V25.9998Z" fill="#808DB2"/>
<path d="M13.135 51C13.0417 51 12.9624 50.9673 12.897 50.902C12.8317 50.8367 12.799 50.7573 12.799 50.664V41.536C12.799 41.4427 12.8317 41.3633 12.897 41.298C12.9624 41.2327 13.0417 41.2 13.135 41.2H14.451C14.5537 41.2 14.633 41.2327 14.689 41.298C14.7544 41.3633 14.787 41.4427 14.787 41.536V50.664C14.787 50.7573 14.7544 50.8367 14.689 50.902C14.633 50.9673 14.5537 51 14.451 51H13.135ZM17.1506 51C17.0573 51 16.978 50.9673 16.9126 50.902C16.8473 50.8367 16.8146 50.7573 16.8146 50.664V44.056C16.8146 43.9627 16.8473 43.8833 16.9126 43.818C16.978 43.7527 17.0573 43.72 17.1506 43.72H18.2986C18.392 43.72 18.4713 43.7527 18.5366 43.818C18.602 43.8833 18.6346 43.9627 18.6346 44.056V44.63C18.8773 44.3313 19.1853 44.084 19.5586 43.888C19.9413 43.6827 20.4126 43.58 20.9726 43.58C21.542 43.58 22.0366 43.7107 22.4566 43.972C22.8766 44.224 23.1986 44.5833 23.4226 45.05C23.656 45.5167 23.7726 46.0767 23.7726 46.73V50.664C23.7726 50.7573 23.74 50.8367 23.6746 50.902C23.6093 50.9673 23.53 51 23.4366 51H22.2046C22.1113 51 22.032 50.9673 21.9666 50.902C21.9013 50.8367 21.8686 50.7573 21.8686 50.664V46.814C21.8686 46.2727 21.7333 45.848 21.4626 45.54C21.2013 45.232 20.8186 45.078 20.3146 45.078C19.8293 45.078 19.442 45.232 19.1526 45.54C18.8633 45.848 18.7186 46.2727 18.7186 46.814V50.664C18.7186 50.7573 18.686 50.8367 18.6206 50.902C18.5553 50.9673 18.476 51 18.3826 51H17.1506ZM25.887 51C25.7936 51 25.7143 50.9673 25.649 50.902C25.5836 50.8367 25.551 50.7573 25.551 50.664V44.056C25.551 43.9627 25.5836 43.8833 25.649 43.818C25.7143 43.7527 25.7936 43.72 25.887 43.72H27.049C27.1516 43.72 27.231 43.7527 27.287 43.818C27.3523 43.8833 27.385 43.9627 27.385 44.056V50.664C27.385 50.7573 27.3523 50.8367 27.287 50.902C27.231 50.9673 27.1516 51 27.049 51H25.887ZM25.887 42.67C25.7376 42.67 25.663 42.5953 25.663 42.446C25.663 42.3713 25.6863 42.3107 25.733 42.264L26.867 40.878C26.9603 40.7753 27.0396 40.71 27.105 40.682C27.1703 40.6447 27.2636 40.626 27.385 40.626H28.785C28.9623 40.626 29.051 40.7147 29.051 40.892C29.051 40.9573 29.0276 41.0133 28.981 41.06L27.245 42.488C27.1703 42.5533 27.0956 42.6 27.021 42.628C26.9556 42.656 26.8623 42.67 26.741 42.67H25.887ZM32.3924 51.14C31.7204 51.14 31.1277 51.014 30.6144 50.762C30.1104 50.51 29.7137 50.146 29.4244 49.67C29.1444 49.1847 28.9904 48.6013 28.9624 47.92C28.953 47.78 28.9484 47.598 28.9484 47.374C28.9484 47.1407 28.953 46.9493 28.9624 46.8C28.9904 46.1187 29.1444 45.54 29.4244 45.064C29.7137 44.5787 30.1104 44.21 30.6144 43.958C31.1277 43.706 31.7204 43.58 32.3924 43.58C32.9897 43.58 33.4984 43.664 33.9184 43.832C34.3384 44 34.6837 44.21 34.9544 44.462C35.225 44.714 35.4257 44.98 35.5564 45.26C35.6964 45.5307 35.771 45.778 35.7804 46.002C35.7897 46.1047 35.757 46.1887 35.6824 46.254C35.617 46.31 35.5377 46.338 35.4444 46.338H34.2124C34.119 46.338 34.0444 46.3147 33.9884 46.268C33.9417 46.2213 33.895 46.1513 33.8484 46.058C33.7084 45.6847 33.5217 45.4233 33.2884 45.274C33.0644 45.1153 32.775 45.036 32.4204 45.036C31.9537 45.036 31.5804 45.1853 31.3004 45.484C31.0297 45.7733 30.885 46.2353 30.8664 46.87C30.8477 47.2247 30.8477 47.5513 30.8664 47.85C30.885 48.494 31.0297 48.9607 31.3004 49.25C31.5804 49.5393 31.9537 49.684 32.4204 49.684C32.7844 49.684 33.0784 49.6093 33.3024 49.46C33.5264 49.3013 33.7084 49.0353 33.8484 48.662C33.895 48.5687 33.9417 48.4987 33.9884 48.452C34.0444 48.4053 34.119 48.382 34.2124 48.382H35.4444C35.5377 48.382 35.617 48.4147 35.6824 48.48C35.757 48.536 35.7897 48.6153 35.7804 48.718C35.771 48.886 35.7244 49.0773 35.6404 49.292C35.5657 49.4973 35.4397 49.712 35.2624 49.936C35.0944 50.1507 34.8797 50.3513 34.6184 50.538C34.357 50.7153 34.0397 50.86 33.6664 50.972C33.3024 51.084 32.8777 51.14 32.3924 51.14ZM37.5764 51C37.4831 51 37.4037 50.9673 37.3384 50.902C37.2731 50.8367 37.2404 50.7573 37.2404 50.664V44.056C37.2404 43.9627 37.2731 43.8833 37.3384 43.818C37.4037 43.7527 37.4831 43.72 37.5764 43.72H38.7384C38.8411 43.72 38.9204 43.7527 38.9764 43.818C39.0417 43.8833 39.0744 43.9627 39.0744 44.056V50.664C39.0744 50.7573 39.0417 50.8367 38.9764 50.902C38.9204 50.9673 38.8411 51 38.7384 51H37.5764ZM37.5204 42.516C37.4177 42.516 37.3337 42.488 37.2684 42.432C37.2124 42.3667 37.1844 42.2827 37.1844 42.18V41.172C37.1844 41.0787 37.2124 40.9993 37.2684 40.934C37.3337 40.8687 37.4177 40.836 37.5204 40.836H38.7944C38.8971 40.836 38.9811 40.8687 39.0464 40.934C39.1117 40.9993 39.1444 41.0787 39.1444 41.172V42.18C39.1444 42.2827 39.1117 42.3667 39.0464 42.432C38.9811 42.488 38.8971 42.516 38.7944 42.516H37.5204ZM44.1518 51.14C43.4051 51.14 42.7751 51.0093 42.2618 50.748C41.7578 50.4867 41.3705 50.118 41.0998 49.642C40.8385 49.166 40.6891 48.6107 40.6518 47.976C40.6425 47.808 40.6378 47.6027 40.6378 47.36C40.6378 47.1173 40.6425 46.912 40.6518 46.744C40.6891 46.1 40.8431 45.5447 41.1138 45.078C41.3938 44.602 41.7858 44.2333 42.2898 43.972C42.8031 43.7107 43.4238 43.58 44.1518 43.58C44.8798 43.58 45.4958 43.7107 45.9998 43.972C46.5131 44.2333 46.9051 44.602 47.1758 45.078C47.4558 45.5447 47.6145 46.1 47.6518 46.744C47.6611 46.912 47.6658 47.1173 47.6658 47.36C47.6658 47.6027 47.6611 47.808 47.6518 47.976C47.6145 48.6107 47.4605 49.166 47.1898 49.642C46.9285 50.118 46.5411 50.4867 46.0278 50.748C45.5238 51.0093 44.8985 51.14 44.1518 51.14ZM44.1518 49.754C44.6465 49.754 45.0291 49.6 45.2998 49.292C45.5705 48.9747 45.7198 48.5127 45.7478 47.906C45.7571 47.766 45.7618 47.584 45.7618 47.36C45.7618 47.136 45.7571 46.954 45.7478 46.814C45.7198 46.2167 45.5705 45.7593 45.2998 45.442C45.0291 45.1247 44.6465 44.966 44.1518 44.966C43.6571 44.966 43.2745 45.1247 43.0038 45.442C42.7331 45.7593 42.5838 46.2167 42.5558 46.814C42.5465 46.954 42.5418 47.136 42.5418 47.36C42.5418 47.584 42.5465 47.766 42.5558 47.906C42.5838 48.5127 42.7331 48.9747 43.0038 49.292C43.2745 49.6 43.6571 49.754 44.1518 49.754Z" fill="#808DB2"/>
</svg>
