<svg width="20" height="20" viewBox="0 0 20 20" fill="none" xmlns="http://www.w3.org/2000/svg">
<path d="M10 12.5C11.3807 12.5 12.5 11.3807 12.5 10C12.5 8.61929 11.3807 7.5 10 7.5C8.61929 7.5 7.5 8.61929 7.5 10C7.5 11.3807 8.61929 12.5 10 12.5Z" stroke="#6B4DB8" stroke-linecap="round" stroke-linejoin="round"/>
<path d="M14.1934 6.25C15.1167 7.28082 15.6273 8.61608 15.6273 10C15.6273 11.3839 15.1167 12.7192 14.1934 13.75" stroke="#6B4DB8" stroke-linecap="round" stroke-linejoin="round"/>
<path d="M5.80715 13.75C4.88377 12.7192 4.37317 11.3839 4.37317 10C4.37317 8.61608 4.88377 7.28082 5.80715 6.25" stroke="#6B4DB8" stroke-linecap="round" stroke-linejoin="round"/>
<path d="M16.25 3.87646C17.8545 5.51079 18.7535 7.7096 18.7535 9.9999C18.7535 12.2902 17.8545 14.489 16.25 16.1233" stroke="#6B4DB8" stroke-linecap="round" stroke-linejoin="round"/>
<path d="M3.75012 16.1233C2.14559 14.489 1.24664 12.2902 1.24664 9.9999C1.24664 7.7096 2.14559 5.51079 3.75012 3.87646" stroke="#6B4DB8" stroke-linecap="round" stroke-linejoin="round"/>
</svg>
