<svg width="128" height="28" viewBox="0 0 128 28" fill="none" xmlns="http://www.w3.org/2000/svg">
<path fill-rule="evenodd" clip-rule="evenodd" d="M9.69896 13.7987C10.3224 13.7987 10.8277 14.304 10.8277 14.9274V22.3802C10.8277 23.7985 11.9776 24.9484 13.3959 24.9484C14.8143 24.9484 15.9642 23.7985 15.9642 22.3802C15.9642 21.7568 16.4695 21.2514 17.0929 21.2514C17.7163 21.2514 18.2217 21.7568 18.2217 22.3802C18.2217 25.0453 16.0611 27.2059 13.3959 27.2059C10.7308 27.2059 8.57019 25.0453 8.57019 22.3802V14.9274C8.57019 14.304 9.07556 13.7987 9.69896 13.7987Z" fill="#977CEC"/>
<path fill-rule="evenodd" clip-rule="evenodd" d="M4.826 10.9415C3.40768 10.9415 2.25778 12.0914 2.25778 13.5097C2.25778 14.9281 3.40768 16.078 4.826 16.078C5.4494 16.078 5.95477 16.5833 5.95477 17.2067C5.95477 17.8301 5.4494 18.3355 4.826 18.3355C2.16088 18.3355 0.000244141 16.1749 0.000244141 13.5097C0.000244141 10.8446 2.16087 8.68399 4.826 8.68399H12.0903C12.7137 8.68399 13.2191 9.18936 13.2191 9.81276C13.2191 10.4362 12.7137 10.9415 12.0903 10.9415H4.826Z" fill="#977CEC"/>
<path fill-rule="evenodd" clip-rule="evenodd" d="M13.3959 2.25753C11.9755 2.25753 10.8277 3.40421 10.8277 4.8204C10.8277 5.4438 10.3224 5.94917 9.69896 5.94917C9.07556 5.94917 8.57019 5.4438 8.57019 4.8204C8.57019 2.15314 10.733 0 13.3959 0C16.0611 0 18.2217 2.16063 18.2217 4.82575V12.5465C18.2217 13.1699 17.7163 13.6753 17.0929 13.6753C16.4695 13.6753 15.9642 13.1699 15.9642 12.5465V4.82575C15.9642 3.40743 14.8143 2.25753 13.3959 2.25753Z" fill="#977CEC"/>
<path fill-rule="evenodd" clip-rule="evenodd" d="M21.0449 10.0224C21.0449 9.39898 21.5503 8.89362 22.1737 8.89362C24.841 8.89362 26.9941 11.0564 26.9941 13.7194C26.9941 16.3845 24.8335 18.5451 22.1683 18.5451H14.7098C14.0864 18.5451 13.5811 18.0398 13.5811 17.4164C13.5811 16.793 14.0864 16.2876 14.7098 16.2876H22.1683C23.5867 16.2876 24.7366 15.1377 24.7366 13.7194C24.7366 12.2989 23.5899 11.1512 22.1737 11.1512C21.5503 11.1512 21.0449 10.6458 21.0449 10.0224Z" fill="#977CEC"/>
<path d="M117.567 20.5816C116.791 20.5816 116.126 20.4911 115.57 20.3102C115.027 20.1293 114.582 19.9031 114.233 19.6317C113.884 19.3603 113.625 19.089 113.457 18.8176C113.289 18.5462 113.199 18.32 113.186 18.1391C113.173 17.9969 113.212 17.8871 113.302 17.8095C113.405 17.7191 113.515 17.6738 113.632 17.6738H115.163C115.215 17.6738 115.26 17.6803 115.299 17.6932C115.338 17.7061 115.389 17.7449 115.454 17.8095C115.622 17.9517 115.796 18.1003 115.977 18.2554C116.171 18.4105 116.397 18.5462 116.656 18.6625C116.914 18.7659 117.237 18.8176 117.625 18.8176C118.129 18.8176 118.549 18.7206 118.885 18.5268C119.234 18.32 119.408 18.0292 119.408 17.6545C119.408 17.3831 119.331 17.1634 119.176 16.9954C119.034 16.8274 118.762 16.6787 118.362 16.5495C117.961 16.4073 117.392 16.2587 116.656 16.1036C115.932 15.9356 115.331 15.7224 114.853 15.4639C114.375 15.2055 114.019 14.8824 113.787 14.4947C113.554 14.107 113.438 13.6547 113.438 13.1377C113.438 12.6337 113.586 12.1555 113.884 11.7032C114.194 11.238 114.646 10.8567 115.241 10.5595C115.848 10.2623 116.598 10.1136 117.489 10.1136C118.187 10.1136 118.795 10.2041 119.311 10.385C119.828 10.553 120.255 10.7663 120.591 11.0247C120.94 11.2832 121.205 11.5481 121.386 11.8195C121.567 12.078 121.664 12.3042 121.676 12.498C121.689 12.6402 121.651 12.7565 121.56 12.8469C121.47 12.9245 121.366 12.9632 121.25 12.9632H119.815C119.751 12.9632 119.693 12.9503 119.641 12.9245C119.589 12.8986 119.538 12.8663 119.486 12.8276C119.344 12.6983 119.189 12.5626 119.021 12.4205C118.853 12.2783 118.646 12.1555 118.4 12.0521C118.168 11.9358 117.858 11.8777 117.47 11.8777C116.979 11.8777 116.604 11.9875 116.346 12.2072C116.087 12.414 115.958 12.6789 115.958 13.002C115.958 13.2217 116.016 13.4156 116.132 13.5836C116.262 13.7387 116.514 13.8873 116.888 14.0294C117.263 14.1716 117.832 14.3202 118.594 14.4753C119.46 14.6304 120.145 14.863 120.649 15.1732C121.166 15.4704 121.528 15.8193 121.735 16.22C121.954 16.6077 122.064 17.0406 122.064 17.5188C122.064 18.1003 121.89 18.6237 121.541 19.089C121.205 19.5542 120.701 19.9225 120.029 20.1939C119.37 20.4524 118.549 20.5816 117.567 20.5816Z" fill="#977CEC"/>
<path d="M104.539 20.3877C104.41 20.3877 104.3 20.3425 104.21 20.252C104.119 20.1616 104.074 20.0517 104.074 19.9225V7.08954C104.074 6.96031 104.119 6.85046 104.21 6.75999C104.3 6.66953 104.41 6.6243 104.539 6.6243H106.109C106.252 6.6243 106.361 6.66953 106.439 6.75999C106.529 6.85046 106.575 6.96031 106.575 7.08954V13.7193L109.831 10.637C109.948 10.5336 110.051 10.4561 110.142 10.4044C110.232 10.3398 110.368 10.3075 110.549 10.3075H112.351C112.481 10.3075 112.584 10.3462 112.662 10.4238C112.739 10.5013 112.778 10.6047 112.778 10.7339C112.778 10.7856 112.765 10.8438 112.739 10.9084C112.713 10.973 112.662 11.0312 112.584 11.0829L108.591 14.8242L113.069 19.6317C113.198 19.761 113.263 19.8708 113.263 19.9613C113.263 20.0905 113.217 20.1939 113.127 20.2714C113.049 20.349 112.952 20.3877 112.836 20.3877H110.994C110.801 20.3877 110.658 20.3619 110.568 20.3102C110.49 20.2456 110.394 20.1616 110.277 20.0582L106.575 16.1618V19.9225C106.575 20.0517 106.529 20.1616 106.439 20.252C106.361 20.3425 106.252 20.3877 106.109 20.3877H104.539Z" fill="#977CEC"/>
<path d="M100.184 20.3877C100.055 20.3877 99.9453 20.3425 99.8548 20.252C99.7643 20.1616 99.7191 20.0517 99.7191 19.9225V7.08954C99.7191 6.96031 99.7643 6.85046 99.8548 6.75999C99.9453 6.66953 100.055 6.6243 100.184 6.6243H101.793C101.923 6.6243 102.032 6.66953 102.123 6.75999C102.213 6.85046 102.259 6.96031 102.259 7.08954V19.9225C102.259 20.0517 102.213 20.1616 102.123 20.252C102.032 20.3425 101.923 20.3877 101.793 20.3877H100.184Z" fill="#977CEC"/>
<path d="M92.3277 20.5816C91.6557 20.5816 91.0483 20.4524 90.5055 20.1939C89.9627 19.9225 89.5298 19.5671 89.2067 19.1277C88.8965 18.6754 88.7415 18.1714 88.7415 17.6157C88.7415 16.711 89.1033 15.9938 89.827 15.4639C90.5637 14.9211 91.5329 14.5593 92.7348 14.3784L95.3906 13.9907V13.5836C95.3906 13.0408 95.2549 12.6208 94.9835 12.3235C94.7121 12.0263 94.2468 11.8777 93.5877 11.8777C93.1225 11.8777 92.7413 11.9746 92.444 12.1685C92.1597 12.3494 91.9465 12.5949 91.8043 12.9051C91.7009 13.0731 91.5523 13.1571 91.3584 13.1571H89.827C89.6849 13.1571 89.575 13.1183 89.4975 13.0408C89.4329 12.9632 89.4005 12.8599 89.4005 12.7306C89.4135 12.5239 89.4975 12.2718 89.6526 11.9746C89.8076 11.6774 90.0532 11.3931 90.3892 11.1217C90.7252 10.8373 91.1581 10.5983 91.688 10.4044C92.2179 10.2106 92.8576 10.1136 93.6071 10.1136C94.4213 10.1136 95.1062 10.217 95.662 10.4238C96.2306 10.6176 96.6829 10.8826 97.0189 11.2186C97.3549 11.5546 97.6005 11.9488 97.7555 12.4011C97.9106 12.8534 97.9882 13.3316 97.9882 13.8356V19.9225C97.9882 20.0517 97.9429 20.1616 97.8525 20.2521C97.762 20.3425 97.6522 20.3878 97.5229 20.3878H95.9527C95.8106 20.3878 95.6943 20.3425 95.6038 20.2521C95.5263 20.1616 95.4875 20.0517 95.4875 19.9225V19.1665C95.3195 19.412 95.0933 19.6447 94.809 19.8644C94.5247 20.0711 94.1758 20.2456 93.7622 20.3878C93.3616 20.517 92.8834 20.5816 92.3277 20.5816ZM92.9868 18.74C93.4391 18.74 93.8462 18.6431 94.2081 18.4492C94.5828 18.2554 94.8736 17.9582 95.0804 17.5575C95.3001 17.144 95.4099 16.627 95.4099 16.0067V15.5996L93.4714 15.9098C92.7089 16.0261 92.1403 16.2135 91.7655 16.472C91.3908 16.7304 91.2034 17.0471 91.2034 17.4218C91.2034 17.7061 91.2874 17.9517 91.4554 18.1585C91.6363 18.3523 91.8625 18.5009 92.1339 18.6043C92.4052 18.6948 92.6896 18.74 92.9868 18.74Z" fill="#977CEC"/>
<path d="M83.8638 20.3877C83.7345 20.3877 83.6247 20.3425 83.5342 20.252C83.4438 20.1616 83.3985 20.0517 83.3985 19.9225V9.20252H79.8123C79.6831 9.20252 79.5732 9.15729 79.4827 9.06682C79.3923 8.97636 79.347 8.86651 79.347 8.73728V7.30278C79.347 7.16062 79.3923 7.04431 79.4827 6.95384C79.5732 6.86338 79.6831 6.81815 79.8123 6.81815H89.6987C89.8409 6.81815 89.9572 6.86338 90.0476 6.95384C90.1381 7.04431 90.1833 7.16062 90.1833 7.30278V8.73728C90.1833 8.86651 90.1381 8.97636 90.0476 9.06682C89.9572 9.15729 89.8409 9.20252 89.6987 9.20252H86.1318V19.9225C86.1318 20.0517 86.0866 20.1616 85.9961 20.252C85.9057 20.3425 85.7894 20.3877 85.6472 20.3877H83.8638Z" fill="#977CEC"/>
<path d="M69.6274 20.5816C68.9554 20.5816 68.348 20.4524 67.8052 20.1939C67.2624 19.9225 66.8295 19.5671 66.5064 19.1277C66.1962 18.6754 66.0411 18.1714 66.0411 17.6157C66.0411 16.711 66.403 15.9938 67.1267 15.4639C67.8633 14.9211 68.8326 14.5593 70.0345 14.3784L72.6902 13.9907V13.5836C72.6902 13.0408 72.5545 12.6208 72.2832 12.3235C72.0118 12.0263 71.5465 11.8777 70.8874 11.8777C70.4222 11.8777 70.0409 11.9746 69.7437 12.1685C69.4594 12.3494 69.2461 12.5949 69.104 12.9051C69.0006 13.0731 68.852 13.1571 68.6581 13.1571H67.1267C66.9845 13.1571 66.8747 13.1183 66.7972 13.0408C66.7325 12.9632 66.7002 12.8599 66.7002 12.7306C66.7132 12.5239 66.7972 12.2718 66.9522 11.9746C67.1073 11.6774 67.3529 11.3931 67.6889 11.1217C68.0249 10.8373 68.4578 10.5983 68.9877 10.4044C69.5175 10.2106 70.1572 10.1136 70.9068 10.1136C71.721 10.1136 72.4059 10.217 72.9616 10.4238C73.5303 10.6176 73.9826 10.8826 74.3186 11.2186C74.6546 11.5546 74.9001 11.9488 75.0552 12.4011C75.2103 12.8534 75.2878 13.3316 75.2878 13.8356V19.9225C75.2878 20.0517 75.2426 20.1616 75.1522 20.2521C75.0617 20.3425 74.9518 20.3878 74.8226 20.3878H73.2524C73.1103 20.3878 72.9939 20.3425 72.9035 20.2521C72.8259 20.1616 72.7872 20.0517 72.7872 19.9225V19.1665C72.6192 19.412 72.393 19.6447 72.1087 19.8644C71.8244 20.0711 71.4754 20.2456 71.0619 20.3878C70.6613 20.517 70.1831 20.5816 69.6274 20.5816ZM70.2865 18.74C70.7388 18.74 71.1459 18.6431 71.5077 18.4492C71.8825 18.2554 72.1733 17.9582 72.3801 17.5575C72.5998 17.144 72.7096 16.627 72.7096 16.0067V15.5996L70.7711 15.9098C70.0086 16.0261 69.44 16.2135 69.0652 16.472C68.6904 16.7304 68.5031 17.0471 68.5031 17.4218C68.5031 17.7061 68.5871 17.9517 68.7551 18.1585C68.936 18.3523 69.1621 18.5009 69.4335 18.6043C69.7049 18.6948 69.9892 18.74 70.2865 18.74Z" fill="#977CEC"/>
<path d="M60.0089 20.3878C59.8797 20.3878 59.7699 20.3425 59.6794 20.2521C59.5889 20.1616 59.5437 20.0517 59.5437 19.9225V10.7921C59.5437 10.65 59.5889 10.5336 59.6794 10.4432C59.7699 10.3527 59.8797 10.3075 60.0089 10.3075H61.5791C61.7084 10.3075 61.8182 10.3527 61.9087 10.4432C62.0121 10.5336 62.0638 10.65 62.0638 10.7921V11.5869C62.361 11.1733 62.7422 10.8567 63.2075 10.637C63.6857 10.4173 64.2349 10.3075 64.8552 10.3075H65.65C65.7922 10.3075 65.902 10.3527 65.9796 10.4432C66.07 10.5336 66.1153 10.6435 66.1153 10.7727V12.1685C66.1153 12.2977 66.07 12.4075 65.9796 12.498C65.902 12.5885 65.7922 12.6337 65.65 12.6337H64.138C63.5177 12.6337 63.033 12.8082 62.6841 13.1571C62.3481 13.506 62.1801 13.9842 62.1801 14.5916V19.9225C62.1801 20.0517 62.1348 20.1616 62.0444 20.2521C61.9539 20.3425 61.8376 20.3878 61.6955 20.3878H60.0089Z" fill="#977CEC"/>
<path d="M52.0205 20.5816C51.2322 20.5816 50.5472 20.4071 49.9657 20.0582C49.3971 19.6964 48.9577 19.1923 48.6475 18.5462C48.3373 17.8871 48.1823 17.1117 48.1823 16.2199V10.7727C48.1823 10.6435 48.2275 10.5336 48.3179 10.4432C48.4084 10.3527 48.5183 10.3075 48.6475 10.3075H50.3534C50.4955 10.3075 50.6054 10.3527 50.6829 10.4432C50.7734 10.5336 50.8186 10.6435 50.8186 10.7727V16.1036C50.8186 17.7061 51.523 18.5074 52.9316 18.5074C53.6036 18.5074 54.1335 18.2942 54.5212 17.8677C54.9218 17.4412 55.1221 16.8532 55.1221 16.1036V10.7727C55.1221 10.6435 55.1674 10.5336 55.2578 10.4432C55.3483 10.3527 55.4581 10.3075 55.5874 10.3075H57.2933C57.4225 10.3075 57.5323 10.3527 57.6228 10.4432C57.7133 10.5336 57.7585 10.6435 57.7585 10.7727V19.9225C57.7585 20.0517 57.7133 20.1616 57.6228 20.2521C57.5323 20.3425 57.4225 20.3878 57.2933 20.3878H55.7231C55.5809 20.3878 55.4646 20.3425 55.3741 20.2521C55.2966 20.1616 55.2578 20.0517 55.2578 19.9225V19.1277C54.9089 19.58 54.476 19.9354 53.959 20.1939C53.4421 20.4524 52.7959 20.5816 52.0205 20.5816Z" fill="#977CEC"/>
<path d="M44.4088 20.3877C44.2796 20.3877 44.1698 20.3425 44.0793 20.252C43.9888 20.1616 43.9436 20.0517 43.9436 19.9225V7.08954C43.9436 6.96031 43.9888 6.85046 44.0793 6.75999C44.1698 6.66953 44.2796 6.6243 44.4088 6.6243H46.0178C46.147 6.6243 46.2569 6.66953 46.3474 6.75999C46.4378 6.85046 46.4831 6.96031 46.4831 7.08954V19.9225C46.4831 20.0517 46.4378 20.1616 46.3474 20.252C46.2569 20.3425 46.147 20.3877 46.0178 20.3877H44.4088Z" fill="#977CEC"/>
<path d="M32.6192 20.3877C32.4899 20.3877 32.3801 20.3425 32.2896 20.252C32.1992 20.1616 32.1539 20.0517 32.1539 19.9225V7.30278C32.1539 7.16062 32.1992 7.04431 32.2896 6.95384C32.3801 6.86338 32.4899 6.81815 32.6192 6.81815H37.8144C38.8224 6.81815 39.7012 6.97969 40.4508 7.30278C41.2003 7.61294 41.7819 8.0911 42.1954 8.73728C42.609 9.37052 42.8158 10.1653 42.8158 11.1216C42.8158 12.0909 42.609 12.8922 42.1954 13.5254C41.7819 14.1457 41.2003 14.611 40.4508 14.9211C39.7012 15.2313 38.8224 15.3864 37.8144 15.3864H34.926V19.9225C34.926 20.0517 34.8808 20.1616 34.7903 20.252C34.7128 20.3425 34.6029 20.3877 34.4608 20.3877H32.6192ZM34.8872 13.2346H37.7175C38.467 13.2346 39.0421 13.0602 39.4427 12.7112C39.8434 12.3494 40.0437 11.8195 40.0437 11.1216C40.0437 10.4755 39.8563 9.95854 39.4815 9.57084C39.1067 9.17021 38.5187 8.9699 37.7175 8.9699H34.8872V13.2346Z" fill="#977CEC"/>
<path d="M125.423 11.9487C125.065 11.9487 124.731 11.8819 124.421 11.7483C124.111 11.6147 123.836 11.431 123.598 11.1972C123.364 10.9586 123.18 10.6843 123.047 10.3741C122.913 10.064 122.846 9.72994 122.846 9.37208C122.846 9.01421 122.913 8.6802 123.047 8.37005C123.18 8.0599 123.364 7.78792 123.598 7.55412C123.836 7.31554 124.111 7.12945 124.421 6.99585C124.731 6.86224 125.065 6.79544 125.423 6.79544C125.781 6.79544 126.115 6.86224 126.425 6.99585C126.735 7.12945 127.007 7.31554 127.241 7.55412C127.479 7.78792 127.666 8.0599 127.799 8.37005C127.933 8.6802 128 9.01421 128 9.37208C128 9.72994 127.933 10.064 127.799 10.3741C127.666 10.6843 127.479 10.9586 127.241 11.1972C127.007 11.431 126.735 11.6147 126.425 11.7483C126.115 11.8819 125.781 11.9487 125.423 11.9487ZM125.423 11.4405C125.709 11.4405 125.974 11.3857 126.217 11.2759C126.461 11.1662 126.675 11.0183 126.862 10.8322C127.048 10.6413 127.193 10.4218 127.298 10.1737C127.403 9.92081 127.456 9.6536 127.456 9.37208C127.456 9.09056 127.403 8.82574 127.298 8.57762C127.193 8.32472 127.048 8.10523 126.862 7.91914C126.675 7.72828 126.461 7.57797 126.217 7.46823C125.974 7.35848 125.709 7.30361 125.423 7.30361C125.141 7.30361 124.877 7.35848 124.628 7.46823C124.385 7.57797 124.17 7.72828 123.984 7.91914C123.803 8.10523 123.66 8.32472 123.555 8.57762C123.45 8.82574 123.397 9.09056 123.397 9.37208C123.397 9.6536 123.45 9.92081 123.555 10.1737C123.66 10.4218 123.803 10.6413 123.984 10.8322C124.17 11.0183 124.385 11.1662 124.628 11.2759C124.877 11.3857 125.141 11.4405 125.423 11.4405ZM124.564 10.6747C124.459 10.6747 124.407 10.6222 124.407 10.5173V8.21259C124.407 8.10762 124.459 8.05513 124.564 8.05513H125.53C125.712 8.05513 125.881 8.08376 126.038 8.14102C126.201 8.19351 126.33 8.28178 126.425 8.40584C126.525 8.5299 126.575 8.69929 126.575 8.91401C126.575 9.10487 126.53 9.26233 126.439 9.38639C126.353 9.50568 126.244 9.59396 126.11 9.65121L126.532 10.417C126.542 10.4266 126.549 10.4409 126.554 10.46C126.559 10.4743 126.561 10.4934 126.561 10.5173C126.561 10.5554 126.547 10.5912 126.518 10.6246C126.494 10.658 126.456 10.6747 126.404 10.6747H126.096C126.048 10.6747 126.007 10.6628 125.974 10.6389C125.941 10.6151 125.912 10.5817 125.888 10.5387L125.487 9.77289H125.051V10.5173C125.051 10.6222 124.998 10.6747 124.893 10.6747H124.564ZM125.051 9.23609H125.523C125.676 9.23609 125.781 9.20507 125.838 9.14304C125.895 9.07624 125.924 8.9999 125.924 8.91401C125.924 8.82335 125.895 8.74701 125.838 8.68498C125.781 8.61817 125.676 8.58477 125.523 8.58477H125.051V9.23609Z" fill="#977CEC"/>
</svg>
