<svg width="40" height="42" viewBox="0 0 40 42" fill="none" xmlns="http://www.w3.org/2000/svg">
<path fill-rule="evenodd" clip-rule="evenodd" d="M14.3717 21.2903C15.2954 21.2903 16.0443 22.0391 16.0443 22.9629V34.0065C16.0443 36.1082 17.7482 37.8121 19.8499 37.8121C21.9516 37.8121 23.6556 36.1082 23.6556 34.0065C23.6556 33.0827 24.4044 32.3339 25.3282 32.3339C26.252 32.3339 27.0008 33.0827 27.0008 34.0065C27.0008 37.9557 23.7992 41.1574 19.8499 41.1574C15.9007 41.1574 12.699 37.9557 12.699 34.0065V22.9629C12.699 22.0391 13.4479 21.2903 14.3717 21.2903Z" fill="#977CEC"/>
<path fill-rule="evenodd" clip-rule="evenodd" d="M7.15085 17.0564C5.04915 17.0564 3.34521 18.7604 3.34521 20.8621C3.34521 22.9638 5.04915 24.6677 7.15085 24.6677C8.07462 24.6677 8.82348 25.4166 8.82348 26.3403C8.82348 27.2641 8.07462 28.013 7.15085 28.013C3.20162 28.013 -4.57764e-05 24.8113 -4.57764e-05 20.8621C-4.57764e-05 16.9128 3.20162 13.7112 7.15085 13.7112H17.9152C18.839 13.7112 19.5879 14.46 19.5879 15.3838C19.5879 16.3076 18.839 17.0564 17.9152 17.0564H7.15085Z" fill="#977CEC"/>
<path fill-rule="evenodd" clip-rule="evenodd" d="M19.8499 4.18827C17.7451 4.18827 16.0443 5.88744 16.0443 7.98597C16.0443 8.90974 15.2954 9.6586 14.3717 9.6586C13.4479 9.6586 12.699 8.90974 12.699 7.98597C12.699 4.03359 15.9039 0.843018 19.8499 0.843018C23.7992 0.843018 27.0008 4.04468 27.0008 7.99391V19.4347C27.0008 20.3584 26.252 21.1073 25.3282 21.1073C24.4044 21.1073 23.6556 20.3584 23.6556 19.4347V7.99391C23.6556 5.89222 21.9516 4.18827 19.8499 4.18827Z" fill="#977CEC"/>
<path fill-rule="evenodd" clip-rule="evenodd" d="M31.1844 15.6946C31.1844 14.7708 31.9332 14.022 32.857 14.022C36.8094 14.022 40 17.2268 40 21.1729C40 25.1221 36.7983 28.3238 32.8491 28.3238H21.7969C20.8731 28.3238 20.1243 27.5749 20.1243 26.6511C20.1243 25.7274 20.8731 24.9785 21.7969 24.9785H32.8491C34.9507 24.9785 36.6547 23.2746 36.6547 21.1729C36.6547 19.068 34.9555 17.3672 32.857 17.3672C31.9332 17.3672 31.1844 16.6184 31.1844 15.6946Z" fill="#977CEC"/>
</svg>
