<svg width="19" height="18" viewBox="0 0 19 18" fill="none" xmlns="http://www.w3.org/2000/svg">
<path d="M8.0625 17.25C8.0625 17.3992 8.00324 17.5423 7.89775 17.6477C7.79226 17.7532 7.64918 17.8125 7.5 17.8125H1.5C1.35082 17.8125 1.20774 17.7532 1.10225 17.6477C0.996763 17.5423 0.9375 17.3992 0.9375 17.25V0.75C0.9375 0.600816 0.996763 0.457742 1.10225 0.352252C1.20774 0.246763 1.35082 0.1875 1.5 0.1875H7.5C7.64918 0.1875 7.79226 0.246763 7.89775 0.352252C8.00324 0.457742 8.0625 0.600816 8.0625 0.75C8.0625 0.899184 8.00324 1.04226 7.89775 1.14775C7.79226 1.25324 7.64918 1.3125 7.5 1.3125H2.0625V16.6875H7.5C7.64918 16.6875 7.79226 16.7468 7.89775 16.8523C8.00324 16.9577 8.0625 17.1008 8.0625 17.25ZM18.3975 8.6025L14.6475 4.8525C14.5409 4.75314 14.3998 4.69905 14.2541 4.70162C14.1084 4.70419 13.9693 4.76322 13.8663 4.86628C13.7632 4.96934 13.7042 5.10838 13.7016 5.25411C13.699 5.39983 13.7531 5.54087 13.8525 5.6475L16.6416 8.4375H7.5C7.35082 8.4375 7.20774 8.49676 7.10225 8.60225C6.99676 8.70774 6.9375 8.85082 6.9375 9C6.9375 9.14918 6.99676 9.29226 7.10225 9.39775C7.20774 9.50324 7.35082 9.5625 7.5 9.5625H16.6416L13.8525 12.3525C13.7972 12.404 13.7529 12.4661 13.7222 12.5351C13.6914 12.6041 13.6749 12.6786 13.6736 12.7541C13.6722 12.8296 13.6861 12.9047 13.7144 12.9747C13.7427 13.0447 13.7848 13.1084 13.8382 13.1618C13.8916 13.2152 13.9553 13.2573 14.0253 13.2856C14.0953 13.3139 14.1704 13.3278 14.2459 13.3264C14.3214 13.3251 14.3959 13.3086 14.4649 13.2778C14.5339 13.2471 14.596 13.2028 14.6475 13.1475L18.3975 9.3975C18.5028 9.29203 18.562 9.14906 18.562 9C18.562 8.85094 18.5028 8.70797 18.3975 8.6025Z" fill="#191F33"/>
</svg>
