<svg width="20" height="22" viewBox="0 0 20 22" fill="none" xmlns="http://www.w3.org/2000/svg">
<path d="M19.5001 10.9894C19.5008 11.2567 19.4301 11.5192 19.2952 11.75C19.1604 11.9808 18.9664 12.1713 18.7332 12.3019L2.99074 21.3028C2.76483 21.4309 2.50978 21.4987 2.25011 21.4997C2.01085 21.4984 1.77537 21.4399 1.56333 21.3291C1.35128 21.2183 1.16883 21.0583 1.0312 20.8626C0.893564 20.6669 0.804745 20.4411 0.772156 20.2041C0.739567 19.967 0.764152 19.7256 0.84386 19.5L3.37511 12.0047C3.39985 11.9314 3.44664 11.8676 3.50907 11.822C3.57151 11.7763 3.64653 11.7511 3.72386 11.7497H10.5001C10.6029 11.75 10.7047 11.729 10.7991 11.6883C10.8935 11.6475 10.9785 11.5878 11.0488 11.5128C11.1191 11.4378 11.1733 11.3491 11.2079 11.2523C11.2426 11.1555 11.2569 11.0526 11.2501 10.95C11.2331 10.7572 11.1439 10.5779 11.0003 10.448C10.8567 10.3181 10.6693 10.2473 10.4757 10.2497H3.72573C3.64728 10.2497 3.5708 10.2251 3.50706 10.1794C3.44332 10.1336 3.39553 10.0691 3.37042 9.99473L0.839173 2.50035C0.738424 2.21309 0.727459 1.90198 0.807735 1.60835C0.888011 1.31471 1.05573 1.05245 1.2886 0.856398C1.52148 0.660349 1.8085 0.539795 2.11152 0.510751C2.41454 0.481706 2.71923 0.545546 2.98511 0.693789L18.7351 9.68348C18.9669 9.81379 19.16 10.0034 19.2944 10.2329C19.4288 10.4624 19.4998 10.7235 19.5001 10.9894Z" fill="#FCFDFF"/>
</svg>
