<svg width="60" height="56" viewBox="0 0 24 24" fill="none" xmlns="http://www.w3.org/2000/svg">
  <path
    d="M12 3C12.5523 3 13 3.44772 13 4V4.27626C13.7252 4.44571 14.4123 4.73093 15.0353 5.11732L15.2322 4.92039C15.6227 4.52986 16.2559 4.52986 16.6464 4.92039L19.0796 7.35355C19.4701 7.74408 19.4701 8.37724 19.0796 8.76777L18.8827 8.96469C19.2691 9.58766 19.5543 10.2748 19.7237 11H20C20.5523 11 21 11.4477 21 12C21 12.5523 20.5523 13 20 13H19.7237C19.5543 13.7252 19.2691 14.4123 18.8827 15.0353L19.0796 15.2322C19.4701 15.6228 19.4701 16.2559 19.0796 16.6464L16.6464 19.0796C16.2559 19.4701 15.6227 19.4701 15.2322 19.0796L15.0353 18.8827C14.4123 19.2691 13.7252 19.5543 13 19.7237V20C13 20.5523 12.5523 21 12 21C11.4477 21 11 20.5523 11 20V19.7237C10.2748 19.5543 9.58766 19.2691 8.96469 18.8827L8.76777 19.0796C8.37724 19.4701 7.74408 19.4701 7.35355 19.0796L4.92039 16.6464C4.52986 16.2559 4.52986 15.6228 4.92039 15.2322L5.11732 15.0353C4.73093 14.4123 4.44571 13.7252 4.27626 13H4C3.44772 13 3 12.5523 3 12C3 11.4477 3.44772 11 4 11H4.27626C4.44571 10.2748 4.73093 9.58766 5.11732 8.96469L4.92039 8.76777C4.52986 8.37724 4.52986 7.74408 4.92039 7.35355L7.35355 4.92039C7.74408 4.52986 8.37724 4.52986 8.76777 4.92039L8.96469 5.11732C9.58766 4.73093 10.2748 4.44571 11 4.27626V4C11 3.44772 11.4477 3 12 3Z"
    stroke="#FFFFFF"
    stroke-width="1.9"
    stroke-linecap="round"
    stroke-linejoin="round"
  />
  <circle cx="12" cy="12" r="3.1" stroke="#FFFFFF" stroke-width="1.9" />
</svg>
