<svg width="60" height="56" viewBox="0 0 60 56" fill="none" xmlns="http://www.w3.org/2000/svg">
<path d="M31.5 22.5C31.5 22.7967 31.412 23.0867 31.2472 23.3334C31.0824 23.58 30.8481 23.7723 30.574 23.8858C30.2999 23.9993 29.9983 24.0291 29.7074 23.9712C29.4164 23.9133 29.1491 23.7704 28.9393 23.5607C28.7296 23.3509 28.5867 23.0836 28.5288 22.7926C28.4709 22.5017 28.5006 22.2001 28.6142 21.926C28.7277 21.6519 28.92 21.4176 29.1666 21.2528C29.4133 21.088 29.7033 21 30 21C30.3978 21 30.7794 21.158 31.0607 21.4393C31.342 21.7206 31.5 22.1022 31.5 22.5ZM30 9C27.2425 9 25 11.0188 25 13.5V14C25 14.2652 25.1054 14.5196 25.2929 14.7071C25.4804 14.8946 25.7348 15 26 15C26.2652 15 26.5196 14.8946 26.7071 14.7071C26.8946 14.5196 27 14.2652 27 14V13.5C27 12.125 28.3462 11 30 11C31.6537 11 33 12.125 33 13.5C33 14.875 31.6537 16 30 16C29.7348 16 29.4804 16.1054 29.2929 16.2929C29.1054 16.4804 29 16.7348 29 17V18C29 18.2652 29.1054 18.5196 29.2929 18.7071C29.4804 18.8946 29.7348 19 30 19C30.2652 19 30.5196 18.8946 30.7071 18.7071C30.8946 18.5196 31 18.2652 31 18V17.91C33.28 17.4913 35 15.6725 35 13.5C35 11.0188 32.7575 9 30 9ZM43 16C43 18.5712 42.2376 21.0846 40.8091 23.2224C39.3806 25.3603 37.3503 27.0265 34.9749 28.0104C32.5994 28.9944 29.9856 29.2518 27.4638 28.7502C24.9421 28.2486 22.6257 27.0105 20.8076 25.1924C18.9895 23.3743 17.7514 21.0579 17.2498 18.5362C16.7482 16.0144 17.0056 13.4006 17.9896 11.0251C18.9735 8.64968 20.6397 6.61935 22.7776 5.1909C24.9154 3.76244 27.4288 3 30 3C33.4467 3.00364 36.7512 4.37445 39.1884 6.81163C41.6255 9.24882 42.9964 12.5533 43 16ZM41 16C41 13.8244 40.3549 11.6977 39.1462 9.88873C37.9375 8.07979 36.2195 6.66989 34.2095 5.83733C32.1995 5.00476 29.9878 4.78692 27.854 5.21136C25.7202 5.6358 23.7602 6.68345 22.2218 8.22183C20.6834 9.7602 19.6358 11.7202 19.2114 13.854C18.7869 15.9878 19.0048 18.1995 19.8373 20.2095C20.6699 22.2195 22.0798 23.9375 23.8887 25.1462C25.6977 26.3549 27.8244 27 30 27C32.9164 26.9967 35.7123 25.8367 37.7745 23.7745C39.8367 21.7123 40.9967 18.9164 41 16Z" fill="#808DB2"/>
<path d="M7.25279 51.14C6.38479 51.14 5.65679 51.014 5.06879 50.762C4.49012 50.5007 4.04679 50.1647 3.73879 49.754C3.44012 49.334 3.28146 48.8953 3.26279 48.438C3.26279 48.354 3.29079 48.284 3.34679 48.228C3.40279 48.172 3.47279 48.144 3.55679 48.144H4.80279C4.92412 48.144 5.01279 48.172 5.06879 48.228C5.13412 48.2747 5.19012 48.3353 5.23679 48.41C5.29279 48.5873 5.40012 48.7647 5.55879 48.942C5.71746 49.11 5.93212 49.25 6.20279 49.362C6.48279 49.474 6.83279 49.53 7.25279 49.53C7.92479 49.53 8.42412 49.418 8.75079 49.194C9.08679 48.97 9.25479 48.6667 9.25479 48.284C9.25479 48.0133 9.16612 47.7987 8.98879 47.64C8.81146 47.472 8.53612 47.3227 8.16279 47.192C7.79879 47.052 7.31346 46.9073 6.70679 46.758C6.00679 46.59 5.41879 46.3893 4.94279 46.156C4.47612 45.9133 4.12146 45.61 3.87879 45.246C3.64546 44.882 3.52879 44.42 3.52879 43.86C3.52879 43.3187 3.67346 42.838 3.96279 42.418C4.26146 41.998 4.68146 41.6667 5.22279 41.424C5.77346 41.1813 6.42679 41.06 7.18279 41.06C7.78946 41.06 8.32612 41.144 8.79279 41.312C9.25946 41.4707 9.64679 41.6853 9.95479 41.956C10.2628 42.2173 10.4961 42.502 10.6548 42.81C10.8228 43.1087 10.9115 43.4027 10.9208 43.692C10.9208 43.7667 10.8928 43.8367 10.8368 43.902C10.7901 43.958 10.7201 43.986 10.6268 43.986H9.32479C9.25012 43.986 9.17546 43.9673 9.10079 43.93C9.02612 43.8927 8.96546 43.8227 8.91879 43.72C8.86279 43.4307 8.68079 43.1833 8.37279 42.978C8.06479 42.7727 7.66812 42.67 7.18279 42.67C6.67879 42.67 6.27279 42.7633 5.96479 42.95C5.65679 43.1367 5.50279 43.426 5.50279 43.818C5.50279 44.0793 5.57746 44.2987 5.72679 44.476C5.88546 44.644 6.13279 44.7933 6.46879 44.924C6.81412 45.0547 7.26679 45.1947 7.82679 45.344C8.62012 45.5213 9.26879 45.7267 9.77279 45.96C10.2768 46.1933 10.6455 46.492 10.8788 46.856C11.1121 47.2107 11.2288 47.6633 11.2288 48.214C11.2288 48.83 11.0608 49.3573 10.7248 49.796C10.3981 50.2253 9.93612 50.5567 9.33879 50.79C8.74146 51.0233 8.04612 51.14 7.25279 51.14ZM15.3672 51.14C14.7979 51.14 14.3032 51.014 13.8832 50.762C13.4725 50.5007 13.1552 50.1367 12.9312 49.67C12.7072 49.194 12.5952 48.634 12.5952 47.99V44.056C12.5952 43.9627 12.6279 43.8833 12.6932 43.818C12.7585 43.7527 12.8379 43.72 12.9312 43.72H14.1632C14.2659 43.72 14.3452 43.7527 14.4012 43.818C14.4665 43.8833 14.4992 43.9627 14.4992 44.056V47.906C14.4992 49.0633 15.0079 49.642 16.0252 49.642C16.5105 49.642 16.8932 49.488 17.1732 49.18C17.4625 48.872 17.6072 48.4473 17.6072 47.906V44.056C17.6072 43.9627 17.6399 43.8833 17.7052 43.818C17.7705 43.7527 17.8499 43.72 17.9432 43.72H19.1752C19.2685 43.72 19.3479 43.7527 19.4132 43.818C19.4785 43.8833 19.5112 43.9627 19.5112 44.056V50.664C19.5112 50.7573 19.4785 50.8367 19.4132 50.902C19.3479 50.9673 19.2685 51 19.1752 51H18.0412C17.9385 51 17.8545 50.9673 17.7892 50.902C17.7332 50.8367 17.7052 50.7573 17.7052 50.664V50.09C17.4532 50.4167 17.1405 50.6733 16.7672 50.86C16.3939 51.0467 15.9272 51.14 15.3672 51.14ZM21.7105 53.66C21.6172 53.66 21.5379 53.6273 21.4725 53.562C21.4072 53.4967 21.3745 53.4173 21.3745 53.324V44.056C21.3745 43.9627 21.4072 43.8833 21.4725 43.818C21.5379 43.7527 21.6172 43.72 21.7105 43.72H22.8165C22.9192 43.72 22.9985 43.7527 23.0545 43.818C23.1199 43.8833 23.1525 43.9627 23.1525 44.056V44.616C23.3765 44.3173 23.6705 44.07 24.0345 43.874C24.3985 43.678 24.8512 43.58 25.3925 43.58C25.8872 43.58 26.3165 43.6593 26.6805 43.818C27.0445 43.9767 27.3479 44.2053 27.5905 44.504C27.8332 44.7933 28.0199 45.1387 28.1505 45.54C28.2812 45.9413 28.3559 46.3847 28.3745 46.87C28.3839 47.0287 28.3885 47.192 28.3885 47.36C28.3885 47.528 28.3839 47.696 28.3745 47.864C28.3652 48.3307 28.2952 48.7647 28.1645 49.166C28.0339 49.558 27.8425 49.9033 27.5905 50.202C27.3479 50.4913 27.0445 50.72 26.6805 50.888C26.3165 51.056 25.8872 51.14 25.3925 51.14C24.8885 51.14 24.4592 51.0513 24.1045 50.874C23.7499 50.6873 23.4605 50.4447 23.2365 50.146V53.324C23.2365 53.4173 23.2039 53.4967 23.1385 53.562C23.0825 53.6273 23.0032 53.66 22.9005 53.66H21.7105ZM24.8745 49.642C25.2759 49.642 25.5885 49.558 25.8125 49.39C26.0365 49.2127 26.1952 48.984 26.2885 48.704C26.3912 48.424 26.4519 48.116 26.4705 47.78C26.4892 47.5 26.4892 47.22 26.4705 46.94C26.4519 46.604 26.3912 46.296 26.2885 46.016C26.1952 45.736 26.0365 45.512 25.8125 45.344C25.5885 45.1667 25.2759 45.078 24.8745 45.078C24.4919 45.078 24.1792 45.1667 23.9365 45.344C23.7032 45.5213 23.5305 45.75 23.4185 46.03C23.3159 46.3007 23.2552 46.5807 23.2365 46.87C23.2272 47.038 23.2225 47.2153 23.2225 47.402C23.2225 47.5887 23.2272 47.7707 23.2365 47.948C23.2459 48.228 23.3112 48.4987 23.4325 48.76C23.5539 49.012 23.7312 49.222 23.9645 49.39C24.1979 49.558 24.5012 49.642 24.8745 49.642ZM33.1801 51.14C32.4335 51.14 31.8035 51.0093 31.2901 50.748C30.7861 50.4867 30.3988 50.118 30.1281 49.642C29.8668 49.166 29.7175 48.6107 29.6801 47.976C29.6708 47.808 29.6661 47.6027 29.6661 47.36C29.6661 47.1173 29.6708 46.912 29.6801 46.744C29.7175 46.1 29.8715 45.5447 30.1421 45.078C30.4221 44.602 30.8141 44.2333 31.3181 43.972C31.8315 43.7107 32.4521 43.58 33.1801 43.58C33.9081 43.58 34.5241 43.7107 35.0281 43.972C35.5415 44.2333 35.9335 44.602 36.2041 45.078C36.4841 45.5447 36.6428 46.1 36.6801 46.744C36.6895 46.912 36.6941 47.1173 36.6941 47.36C36.6941 47.6027 36.6895 47.808 36.6801 47.976C36.6428 48.6107 36.4888 49.166 36.2181 49.642C35.9568 50.118 35.5695 50.4867 35.0561 50.748C34.5521 51.0093 33.9268 51.14 33.1801 51.14ZM33.1801 49.754C33.6748 49.754 34.0575 49.6 34.3281 49.292C34.5988 48.9747 34.7481 48.5127 34.7761 47.906C34.7855 47.766 34.7901 47.584 34.7901 47.36C34.7901 47.136 34.7855 46.954 34.7761 46.814C34.7481 46.2167 34.5988 45.7593 34.3281 45.442C34.0575 45.1247 33.6748 44.966 33.1801 44.966C32.6855 44.966 32.3028 45.1247 32.0321 45.442C31.7615 45.7593 31.6121 46.2167 31.5841 46.814C31.5748 46.954 31.5701 47.136 31.5701 47.36C31.5701 47.584 31.5748 47.766 31.5841 47.906C31.6121 48.5127 31.7615 48.9747 32.0321 49.292C32.3028 49.6 32.6855 49.754 33.1801 49.754ZM38.5813 51C38.488 51 38.4086 50.9673 38.3433 50.902C38.278 50.8367 38.2453 50.7573 38.2453 50.664V44.07C38.2453 43.9673 38.278 43.8833 38.3433 43.818C38.4086 43.7527 38.488 43.72 38.5813 43.72H39.7153C39.8086 43.72 39.888 43.7527 39.9533 43.818C40.028 43.8833 40.0653 43.9673 40.0653 44.07V44.644C40.28 44.3453 40.5553 44.1167 40.8913 43.958C41.2366 43.7993 41.6333 43.72 42.0813 43.72H42.6553C42.758 43.72 42.8373 43.7527 42.8933 43.818C42.9586 43.8833 42.9913 43.9627 42.9913 44.056V45.064C42.9913 45.1573 42.9586 45.2367 42.8933 45.302C42.8373 45.3673 42.758 45.4 42.6553 45.4H41.5633C41.1153 45.4 40.7653 45.526 40.5133 45.778C40.2706 46.03 40.1493 46.3753 40.1493 46.814V50.664C40.1493 50.7573 40.1166 50.8367 40.0513 50.902C39.986 50.9673 39.902 51 39.7993 51H38.5813ZM47.3732 51C46.8132 51 46.3418 50.902 45.9592 50.706C45.5765 50.51 45.2918 50.2207 45.1052 49.838C44.9185 49.446 44.8252 48.9607 44.8252 48.382V45.204H43.7192C43.6258 45.204 43.5465 45.1713 43.4812 45.106C43.4158 45.0407 43.3832 44.9613 43.3832 44.868V44.056C43.3832 43.9627 43.4158 43.8833 43.4812 43.818C43.5465 43.7527 43.6258 43.72 43.7192 43.72H44.8252V41.396C44.8252 41.3027 44.8532 41.2233 44.9092 41.158C44.9745 41.0927 45.0585 41.06 45.1612 41.06H46.2952C46.3885 41.06 46.4678 41.0927 46.5332 41.158C46.5985 41.2233 46.6312 41.3027 46.6312 41.396V43.72H48.3812C48.4745 43.72 48.5538 43.7527 48.6192 43.818C48.6845 43.8833 48.7172 43.9627 48.7172 44.056V44.868C48.7172 44.9613 48.6845 45.0407 48.6192 45.106C48.5538 45.1713 48.4745 45.204 48.3812 45.204H46.6312V48.242C46.6312 48.6247 46.6965 48.9233 46.8272 49.138C46.9672 49.3527 47.2052 49.46 47.5412 49.46H48.5072C48.6005 49.46 48.6798 49.4927 48.7452 49.558C48.8105 49.6233 48.8432 49.7027 48.8432 49.796V50.664C48.8432 50.7573 48.8105 50.8367 48.7452 50.902C48.6798 50.9673 48.6005 51 48.5072 51H47.3732ZM53.2211 51.14C52.1851 51.14 51.3638 50.8413 50.7571 50.244C50.1505 49.6467 49.8238 48.7973 49.7771 47.696C49.7678 47.6027 49.7631 47.486 49.7631 47.346C49.7631 47.1967 49.7678 47.08 49.7771 46.996C49.8145 46.296 49.9731 45.6893 50.2531 45.176C50.5425 44.6627 50.9391 44.2707 51.4431 44C51.9471 43.72 52.5398 43.58 53.2211 43.58C53.9771 43.58 54.6118 43.7387 55.1251 44.056C55.6385 44.364 56.0258 44.798 56.2871 45.358C56.5485 45.9087 56.6791 46.548 56.6791 47.276V47.57C56.6791 47.6633 56.6465 47.7427 56.5811 47.808C56.5158 47.8733 56.4318 47.906 56.3291 47.906H51.6811C51.6811 47.906 51.6811 47.92 51.6811 47.948C51.6811 47.976 51.6811 47.9993 51.6811 48.018C51.6905 48.3447 51.7511 48.648 51.8631 48.928C51.9845 49.1987 52.1571 49.418 52.3811 49.586C52.6145 49.754 52.8898 49.838 53.2071 49.838C53.4685 49.838 53.6878 49.8007 53.8651 49.726C54.0425 49.642 54.1871 49.5487 54.2991 49.446C54.4111 49.3433 54.4905 49.2593 54.5371 49.194C54.6211 49.082 54.6865 49.0167 54.7331 48.998C54.7891 48.97 54.8685 48.956 54.9711 48.956H56.1751C56.2685 48.956 56.3431 48.984 56.3991 49.04C56.4645 49.096 56.4925 49.166 56.4831 49.25C56.4738 49.3993 56.3945 49.5813 56.2451 49.796C56.1051 50.0107 55.8998 50.2207 55.6291 50.426C55.3585 50.6313 55.0178 50.804 54.6071 50.944C54.2058 51.0747 53.7438 51.14 53.2211 51.14ZM51.6811 46.73H54.7751V46.688C54.7751 46.324 54.7145 46.0067 54.5931 45.736C54.4718 45.4653 54.2945 45.2507 54.0611 45.092C53.8278 44.9333 53.5478 44.854 53.2211 44.854C52.8945 44.854 52.6145 44.9333 52.3811 45.092C52.1478 45.2507 51.9705 45.4653 51.8491 45.736C51.7371 46.0067 51.6811 46.324 51.6811 46.688V46.73Z" fill="#808DB2"/>
</svg>
