<svg width="33" height="32" viewBox="0 0 33 32" fill="none" xmlns="http://www.w3.org/2000/svg">
<path opacity="0.2" d="M21.5 13.5C21.5 14.9834 21.0601 16.4334 20.236 17.6668C19.4119 18.9001 18.2406 19.8614 16.8701 20.4291C15.4997 20.9968 13.9917 21.1453 12.5368 20.8559C11.082 20.5665 9.7456 19.8522 8.6967 18.8033C7.64781 17.7544 6.9335 16.418 6.64411 14.9632C6.35472 13.5083 6.50325 12.0003 7.07091 10.6299C7.63856 9.25943 8.59986 8.08809 9.83323 7.26398C11.0666 6.43987 12.5166 6 14 6C15.9891 6 17.8968 6.79018 19.3033 8.1967C20.7098 9.60322 21.5 11.5109 21.5 13.5Z" fill="#F17E00"/>
<path d="M18.5 20.7101C20.0676 19.7337 21.2746 18.2734 21.9383 16.55C22.6021 14.8265 22.6865 12.9338 22.1787 11.1582C21.671 9.38254 20.5987 7.82057 19.1242 6.70859C17.6497 5.59661 15.8531 4.99512 14.0063 4.99512C12.1595 4.99512 10.3629 5.59661 8.88835 6.70859C7.41383 7.82057 6.34158 9.38254 5.83383 11.1582C5.32608 12.9338 5.41045 14.8265 6.07418 16.55C6.73792 18.2734 7.9449 19.7337 9.51252 20.7101C6.93127 21.5551 4.60877 23.1339 2.74127 25.3564C2.57053 25.5594 2.48746 25.822 2.51031 26.0863C2.53317 26.3506 2.66009 26.595 2.86314 26.7657C3.0662 26.9365 3.32876 27.0196 3.59307 26.9967C3.85738 26.9738 4.10178 26.8469 4.27252 26.6439C6.78127 23.6489 10.2388 22.0001 14 22.0001C17.7613 22.0001 21.2188 23.6489 23.735 26.6439C23.9058 26.8469 24.1502 26.9738 24.4145 26.9967C24.6788 27.0196 24.9413 26.9365 25.1444 26.7657C25.3474 26.595 25.4744 26.3506 25.4972 26.0863C25.5201 25.822 25.437 25.5594 25.2663 25.3564C23.3975 23.1339 21.075 21.5551 18.5 20.7101ZM7.50002 13.5001C7.50002 12.2145 7.88124 10.9578 8.59546 9.88891C9.30969 8.81999 10.3249 7.98687 11.5126 7.4949C12.7003 7.00293 14.0072 6.87421 15.2681 7.12501C16.529 7.37582 17.6872 7.99488 18.5962 8.90392C19.5053 9.81296 20.1243 10.9712 20.3751 12.232C20.6259 13.4929 20.4972 14.7998 20.0052 15.9876C19.5133 17.1753 18.6801 18.1904 17.6112 18.9047C16.5423 19.6189 15.2856 20.0001 14 20.0001C12.2767 19.9981 10.6246 19.3127 9.40602 18.0941C8.18746 16.8756 7.502 15.2234 7.50002 13.5001ZM26.42 8.20012C27.1327 9.87621 27.5 11.6788 27.5 13.5001C27.5 15.3214 27.1327 17.124 26.42 18.8001C26.3431 18.9804 26.2149 19.1341 26.0513 19.2421C25.8877 19.3501 25.696 19.4077 25.5 19.4076C25.3345 19.4077 25.1715 19.3668 25.0257 19.2884C24.8799 19.21 24.7559 19.0967 24.6647 18.9585C24.5735 18.8204 24.518 18.6617 24.5032 18.4969C24.4885 18.332 24.5148 18.166 24.58 18.0139C25.1871 16.5865 25.5 15.0513 25.5 13.5001C25.5 11.949 25.1871 10.4138 24.58 8.98637C24.4758 8.74237 24.4727 8.46694 24.5715 8.22068C24.6703 7.97443 24.8629 7.7775 25.1069 7.67324C25.3509 7.56898 25.6263 7.56591 25.8726 7.66472C26.1188 7.76353 26.3158 7.95612 26.42 8.20012ZM31.5 13.5001C31.5047 15.8702 31.0244 18.2163 30.0888 20.3939C29.9793 20.6299 29.7822 20.8139 29.5393 20.907C29.2964 21.0001 29.0268 20.9948 28.7876 20.8923C28.5485 20.7898 28.3588 20.5982 28.2586 20.3581C28.1585 20.118 28.1558 19.8484 28.2513 19.6064C29.0752 17.6761 29.5 15.5989 29.5 13.5001C29.5 11.4013 29.0752 9.32418 28.2513 7.39387C28.195 7.27249 28.1636 7.14106 28.1591 7.00735C28.1545 6.87364 28.1768 6.74037 28.2246 6.61543C28.2725 6.4905 28.345 6.37644 28.4377 6.28C28.5304 6.18357 28.6416 6.10673 28.7645 6.05403C28.8875 6.00132 29.0198 5.97383 29.1536 5.97318C29.2874 5.97253 29.42 5.99874 29.5434 6.05024C29.6669 6.10174 29.7788 6.1775 29.8725 6.27303C29.9661 6.36855 30.0397 6.4819 30.0888 6.60637C31.0244 8.78398 31.5047 11.13 31.5 13.5001Z" fill="#F17E00"/>
</svg>
