<svg width="32" height="32" viewBox="0 0 32 32" fill="none" xmlns="http://www.w3.org/2000/svg">
<path opacity="0.2" d="M21 18C21 18.9889 20.7068 19.9556 20.1574 20.7779C19.6079 21.6001 18.8271 22.241 17.9134 22.6194C16.9998 22.9978 15.9945 23.0969 15.0246 22.9039C14.0546 22.711 13.1637 22.2348 12.4645 21.5355C11.7652 20.8363 11.289 19.9454 11.0961 18.9755C10.9031 18.0055 11.0022 17.0002 11.3806 16.0866C11.759 15.173 12.3999 14.3921 13.2222 13.8427C14.0444 13.2932 15.0111 13 16 13C17.3261 13 18.5979 13.5268 19.5355 14.4645C20.4732 15.4021 21 16.6739 21 18ZM8 7C7.20888 7 6.43552 7.2346 5.77772 7.67412C5.11992 8.11365 4.60723 8.73836 4.30448 9.46927C4.00173 10.2002 3.92252 11.0044 4.07686 11.7804C4.2312 12.5563 4.61216 13.269 5.17157 13.8284C5.73098 14.3878 6.44372 14.7688 7.21964 14.9231C7.99556 15.0775 8.79983 14.9983 9.53074 14.6955C10.2616 14.3928 10.8864 13.8801 11.3259 13.2223C11.7654 12.5645 12 11.7911 12 11C12 9.93913 11.5786 8.92172 10.8284 8.17157C10.0783 7.42143 9.06087 7 8 7ZM24 7C23.2089 7 22.4355 7.2346 21.7777 7.67412C21.1199 8.11365 20.6072 8.73836 20.3045 9.46927C20.0017 10.2002 19.9225 11.0044 20.0769 11.7804C20.2312 12.5563 20.6122 13.269 21.1716 13.8284C21.731 14.3878 22.4437 14.7688 23.2196 14.9231C23.9956 15.0775 24.7998 14.9983 25.5307 14.6955C26.2616 14.3928 26.8864 13.8801 27.3259 13.2223C27.7654 12.5645 28 11.7911 28 11C28 9.93913 27.5786 8.92172 26.8284 8.17157C26.0783 7.42143 25.0609 7 24 7Z" fill="#F17E00"/>
<path d="M30.6 18.7999C30.495 18.8787 30.3754 18.936 30.2482 18.9686C30.121 19.0012 29.9886 19.0084 29.8586 18.9898C29.7286 18.9713 29.6035 18.9273 29.4905 18.8604C29.3775 18.7935 29.2788 18.705 29.2 18.5999C28.5973 17.7897 27.8127 17.1324 26.9096 16.6808C26.0064 16.2292 25.0098 15.996 24 15.9999C23.7348 15.9999 23.4804 15.8945 23.2929 15.707C23.1054 15.5195 23 15.2651 23 14.9999C23 14.7347 23.1054 14.4803 23.2929 14.2928C23.4804 14.1053 23.7348 13.9999 24 13.9999C24.5611 13.9998 25.1109 13.8424 25.5871 13.5456C26.0632 13.2487 26.4465 12.8243 26.6935 12.3204C26.9405 11.8166 27.0412 11.2537 26.9843 10.6955C26.9273 10.1373 26.715 9.60624 26.3714 9.16268C26.0278 8.71911 25.5666 8.3808 25.0404 8.18617C24.5141 7.99154 23.9439 7.94839 23.3943 8.06163C22.8448 8.17486 22.338 8.43994 21.9315 8.82676C21.5251 9.21358 21.2353 9.70662 21.095 10.2499C21.0622 10.3771 21.0046 10.4966 20.9256 10.6016C20.8466 10.7066 20.7477 10.7949 20.6345 10.8617C20.5213 10.9284 20.3961 10.9722 20.266 10.9906C20.1359 11.0089 20.0035 11.0015 19.8763 10.9686C19.749 10.9358 19.6295 10.8783 19.5246 10.7992C19.4196 10.7202 19.3312 10.6213 19.2645 10.5081C19.1977 10.395 19.1539 10.2697 19.1356 10.1397C19.1172 10.0096 19.1247 9.87712 19.1575 9.7499C19.3522 8.99654 19.72 8.29902 20.2318 7.71284C20.7435 7.12665 21.3849 6.66799 22.1051 6.37334C22.8252 6.07868 23.6042 5.95618 24.3801 6.01556C25.1559 6.07495 25.9072 6.31459 26.5741 6.71541C27.241 7.11624 27.8052 7.66719 28.2217 8.32442C28.6383 8.98165 28.8957 9.72703 28.9734 10.5012C29.0512 11.2755 28.9472 12.0571 28.6697 12.7841C28.3922 13.511 27.9489 14.1632 27.375 14.6886C28.7348 15.2774 29.9168 16.2117 30.8038 17.3986C30.8826 17.504 30.9398 17.6238 30.9722 17.7513C31.0046 17.8788 31.0115 18.0114 30.9926 18.1415C30.9737 18.2717 30.9293 18.3969 30.8619 18.5098C30.7945 18.6228 30.7055 18.7214 30.6 18.7999ZM23.865 26.4999C23.9348 26.6137 23.9811 26.7404 24.0012 26.8724C24.0213 27.0044 24.0147 27.1391 23.9819 27.2686C23.949 27.398 23.8906 27.5196 23.81 27.6261C23.7295 27.7326 23.6284 27.8218 23.5127 27.8886C23.3971 27.9554 23.2693 27.9984 23.1368 28.015C23.0042 28.0315 22.8698 28.0214 22.7412 27.9852C22.6127 27.949 22.4927 27.8873 22.3884 27.804C22.2841 27.7206 22.1975 27.6173 22.1338 27.4999C21.5037 26.4335 20.6066 25.5498 19.5309 24.9359C18.4552 24.322 17.238 23.9991 15.9994 23.9991C14.7608 23.9991 13.5436 24.322 12.4679 24.9359C11.3922 25.5498 10.495 26.4335 9.86501 27.4999C9.8025 27.6194 9.71646 27.725 9.61206 27.8104C9.50767 27.8958 9.38708 27.9592 9.25755 27.9968C9.12802 28.0343 8.99223 28.0453 8.85835 28.0291C8.72446 28.0128 8.59525 27.9696 8.47848 27.9021C8.36172 27.8346 8.25981 27.7442 8.1789 27.6363C8.09798 27.5284 8.03973 27.4053 8.00764 27.2743C7.97556 27.1433 7.9703 27.0072 7.99219 26.8741C8.01408 26.741 8.06266 26.6137 8.13501 26.4999C9.10451 24.8341 10.5828 23.5232 12.3525 22.7599C11.3567 21.9974 10.6248 20.9421 10.2598 19.7422C9.89473 18.5423 9.91489 17.2581 10.3174 16.0703C10.7199 14.8824 11.4846 13.8506 12.5038 13.1197C13.5231 12.3889 14.7458 11.9959 16 11.9959C17.2542 11.9959 18.4769 12.3889 19.4962 13.1197C20.5155 13.8506 21.2801 14.8824 21.6826 16.0703C22.0851 17.2581 22.1053 18.5423 21.7403 19.7422C21.3752 20.9421 20.6434 21.9974 19.6475 22.7599C21.4173 23.5232 22.8955 24.8341 23.865 26.4999ZM16 21.9999C16.7911 21.9999 17.5645 21.7653 18.2223 21.3258C18.8801 20.8863 19.3928 20.2615 19.6955 19.5306C19.9983 18.7997 20.0775 17.9955 19.9232 17.2195C19.7688 16.4436 19.3878 15.7309 18.8284 15.1715C18.269 14.6121 17.5563 14.2311 16.7804 14.0768C16.0045 13.9224 15.2002 14.0016 14.4693 14.3044C13.7384 14.6071 13.1137 15.1198 12.6741 15.7776C12.2346 16.4354 12 17.2088 12 17.9999C12 19.0608 12.4214 20.0782 13.1716 20.8283C13.9217 21.5785 14.9391 21.9999 16 21.9999ZM9.00001 14.9999C9.00001 14.7347 8.89466 14.4803 8.70712 14.2928C8.51958 14.1053 8.26523 13.9999 8.00001 13.9999C7.43892 13.9998 6.88909 13.8424 6.41297 13.5456C5.93686 13.2487 5.55353 12.8243 5.30655 12.3204C5.05957 11.8166 4.95882 11.2537 5.01576 10.6955C5.0727 10.1373 5.28503 9.60624 5.62865 9.16268C5.97226 8.71911 6.43339 8.3808 6.95964 8.18617C7.48589 7.99154 8.05618 7.94839 8.60572 8.06163C9.15527 8.17486 9.66204 8.43994 10.0685 8.82676C10.4749 9.21358 10.7647 9.70662 10.905 10.2499C10.9713 10.5068 11.137 10.7269 11.3655 10.8617C11.5941 10.9965 11.8668 11.035 12.1238 10.9686C12.3807 10.9023 12.6008 10.7367 12.7355 10.5081C12.8703 10.2796 12.9088 10.0068 12.8425 9.7499C12.6478 8.99654 12.28 8.29902 11.7683 7.71284C11.2566 7.12665 10.6151 6.66799 9.89495 6.37334C9.17479 6.07868 8.3958 5.95618 7.61996 6.01556C6.84412 6.07495 6.09285 6.31459 5.42592 6.71541C4.75899 7.11624 4.19482 7.66719 3.77829 8.32442C3.36176 8.98165 3.10437 9.72703 3.0266 10.5012C2.94883 11.2755 3.05283 12.0571 3.33032 12.7841C3.60781 13.511 4.05113 14.1632 4.62501 14.6886C3.26662 15.278 2.08591 16.2122 1.20001 17.3986C1.04072 17.6108 0.972231 17.8776 1.00962 18.1403C1.04701 18.4029 1.18721 18.64 1.39939 18.7993C1.61156 18.9586 1.87832 19.0271 2.14099 18.9897C2.40366 18.9523 2.64072 18.8121 2.80001 18.5999C3.40275 17.7897 4.18728 17.1324 5.09046 16.6808C5.99364 16.2292 6.99023 15.996 8.00001 15.9999C8.26523 15.9999 8.51958 15.8945 8.70712 15.707C8.89466 15.5195 9.00001 15.2651 9.00001 14.9999Z" fill="#F17E00"/>
</svg>
