<svg width="33" height="32" viewBox="0 0 33 32" fill="none" xmlns="http://www.w3.org/2000/svg">
<path opacity="0.2" d="M21.5 12.5C21.5 13.9834 21.0601 15.4334 20.236 16.6668C19.4119 17.9001 18.2406 18.8614 16.8701 19.4291C15.4997 19.9968 13.9917 20.1453 12.5368 19.8559C11.082 19.5665 9.7456 18.8522 8.6967 17.8033C7.64781 16.7544 6.9335 15.418 6.64411 13.9632C6.35472 12.5083 6.50325 11.0003 7.07091 9.62987C7.63856 8.25943 8.59986 7.08809 9.83323 6.26398C11.0666 5.43987 12.5166 5 14 5C15.9891 5 17.8968 5.79018 19.3033 7.1967C20.7098 8.60322 21.5 10.5109 21.5 12.5Z" fill="#977CEC"/>
<path d="M32.5 17.0001C32.5 17.2653 32.3946 17.5197 32.2071 17.7072C32.0196 17.8948 31.7652 18.0001 31.5 18.0001H29.5V20.0001C29.5 20.2653 29.3946 20.5197 29.2071 20.7072C29.0196 20.8948 28.7652 21.0001 28.5 21.0001C28.2348 21.0001 27.9804 20.8948 27.7929 20.7072C27.6053 20.5197 27.5 20.2653 27.5 20.0001V18.0001H25.5C25.2348 18.0001 24.9804 17.8948 24.7929 17.7072C24.6053 17.5197 24.5 17.2653 24.5 17.0001C24.5 16.7349 24.6053 16.4805 24.7929 16.293C24.9804 16.1055 25.2348 16.0001 25.5 16.0001H27.5V14.0001C27.5 13.7349 27.6053 13.4805 27.7929 13.293C27.9804 13.1055 28.2348 13.0001 28.5 13.0001C28.7652 13.0001 29.0196 13.1055 29.2071 13.293C29.3946 13.4805 29.5 13.7349 29.5 14.0001V16.0001H31.5C31.7652 16.0001 32.0196 16.1055 32.2071 16.293C32.3946 16.4805 32.5 16.7349 32.5 17.0001ZM25.2662 24.3564C25.437 24.5596 25.52 24.8223 25.497 25.0867C25.474 25.3512 25.347 25.5956 25.1437 25.7664C24.9405 25.9371 24.6778 26.0201 24.4134 25.9971C24.1489 25.9742 23.9045 25.8471 23.7337 25.6439C21.2187 22.6489 17.7612 21.0001 14 21.0001C10.2387 21.0001 6.78123 22.6489 4.26623 25.6439C4.0955 25.8469 3.85109 25.9738 3.58678 25.9967C3.32248 26.0196 3.05991 25.9365 2.85686 25.7657C2.6538 25.595 2.52688 25.3506 2.50403 25.0863C2.48117 24.822 2.56425 24.5594 2.73498 24.3564C4.60248 22.1339 6.92498 20.5551 9.50623 19.7101C7.93861 18.7337 6.73163 17.2734 6.0679 15.55C5.40417 13.8265 5.31979 11.9338 5.82754 10.1582C6.33529 8.38254 7.40754 6.82057 8.88207 5.70859C10.3566 4.59661 12.1532 3.99512 14 3.99512C15.8468 3.99512 17.6434 4.59661 19.1179 5.70859C20.5924 6.82057 21.6647 8.38254 22.1724 10.1582C22.6802 11.9338 22.5958 13.8265 21.9321 15.55C21.2683 17.2734 20.0614 18.7337 18.4937 19.7101C21.075 20.5551 23.3975 22.1339 25.2662 24.3564ZM14 19.0001C15.2856 19.0001 16.5423 18.6189 17.6112 17.9047C18.6801 17.1904 19.5132 16.1753 20.0052 14.9876C20.4972 13.7998 20.6259 12.4929 20.3751 11.232C20.1243 9.97115 19.5052 8.81296 18.5962 7.90392C17.6871 6.99488 16.5289 6.37582 15.2681 6.12501C14.0072 5.87421 12.7003 6.00293 11.5125 6.4949C10.3248 6.98687 9.30966 7.81999 8.59543 8.88891C7.8812 9.95783 7.49998 11.2145 7.49998 12.5001C7.50197 14.2234 8.18742 15.8756 9.40598 17.0941C10.6245 18.3127 12.2767 18.9981 14 19.0001Z" fill="#977CEC"/>
</svg>
