<svg width="60" height="56" viewBox="0 0 60 56" fill="none" xmlns="http://www.w3.org/2000/svg">
<path d="M35.1963 9.07375C34.2913 6.95494 32.6824 5.21364 30.6416 4.14422C28.6009 3.0748 26.2534 2.74287 23.9962 3.20455C21.7389 3.66623 19.7103 4.8932 18.2533 6.67802C16.7964 8.46284 16.0004 10.696 16 13V21C16 21.5304 16.2107 22.0391 16.5858 22.4142C16.9609 22.7893 17.4696 23 18 23H24.8337C25.6141 24.7821 26.8964 26.2984 28.5241 27.3638C30.1519 28.4293 32.0546 28.9978 34 29H42C42.5304 29 43.0391 28.7893 43.4142 28.4142C43.7893 28.0391 44 27.5304 44 27V19C43.9995 16.5553 43.1036 14.1955 41.4814 12.3666C39.8593 10.5376 37.6234 9.36619 35.1963 9.07375ZM18 13C18 11.4177 18.4692 9.87103 19.3482 8.55544C20.2273 7.23984 21.4767 6.21446 22.9385 5.60896C24.4003 5.00346 26.0089 4.84504 27.5607 5.15372C29.1126 5.4624 30.538 6.22432 31.6569 7.34314C32.7757 8.46197 33.5376 9.88743 33.8463 11.4393C34.155 12.9911 33.9965 14.5997 33.391 16.0615C32.7855 17.5233 31.7602 18.7727 30.4446 19.6518C29.129 20.5308 27.5823 21 26 21H18V13ZM42 27H34C32.5854 26.9984 31.1964 26.6225 29.974 25.9106C28.7516 25.1986 27.7394 24.1759 27.04 22.9463C28.4096 22.8041 29.7351 22.3804 30.9333 21.7017C32.1314 21.023 33.1763 20.104 34.0024 19.0023C34.8284 17.9006 35.4179 16.6401 35.7337 15.2998C36.0495 13.9595 36.0848 12.5684 35.8375 11.2137C37.5916 11.6277 39.1545 12.6218 40.273 14.035C41.3915 15.4482 42 17.1977 42 19V27Z" fill="#808DB2"/>
<path d="M14.386 51C14.2927 51 14.2133 50.9673 14.148 50.902C14.0827 50.8367 14.05 50.7573 14.05 50.664V41.55C14.05 41.4473 14.0827 41.3633 14.148 41.298C14.2133 41.2327 14.2927 41.2 14.386 41.2H18.012C19.1413 41.2 20.0327 41.4613 20.686 41.984C21.3393 42.5067 21.666 43.2673 21.666 44.266C21.666 44.9567 21.4933 45.5307 21.148 45.988C20.812 46.4453 20.3593 46.7767 19.79 46.982L21.834 50.552C21.862 50.608 21.876 50.6593 21.876 50.706C21.876 50.79 21.8433 50.86 21.778 50.916C21.722 50.972 21.6567 51 21.582 51H20.308C20.1493 51 20.028 50.958 19.944 50.874C19.86 50.79 19.7947 50.706 19.748 50.622L17.942 47.304H15.996V50.664C15.996 50.7573 15.9633 50.8367 15.898 50.902C15.842 50.9673 15.7627 51 15.66 51H14.386ZM15.996 45.722H17.97C18.5393 45.722 18.964 45.596 19.244 45.344C19.524 45.0827 19.664 44.7187 19.664 44.252C19.664 43.7853 19.524 43.4213 19.244 43.16C18.9733 42.8893 18.5487 42.754 17.97 42.754H15.996V45.722ZM26.3559 51.14C25.3199 51.14 24.4986 50.8413 23.8919 50.244C23.2852 49.6467 22.9586 48.7973 22.9119 47.696C22.9026 47.6027 22.8979 47.486 22.8979 47.346C22.8979 47.1967 22.9026 47.08 22.9119 46.996C22.9492 46.296 23.1079 45.6893 23.3879 45.176C23.6772 44.6627 24.0739 44.2707 24.5779 44C25.0819 43.72 25.6746 43.58 26.3559 43.58C27.1119 43.58 27.7466 43.7387 28.2599 44.056C28.7732 44.364 29.1606 44.798 29.4219 45.358C29.6832 45.9087 29.8139 46.548 29.8139 47.276V47.57C29.8139 47.6633 29.7812 47.7427 29.7159 47.808C29.6506 47.8733 29.5666 47.906 29.4639 47.906H24.8159C24.8159 47.906 24.8159 47.92 24.8159 47.948C24.8159 47.976 24.8159 47.9993 24.8159 48.018C24.8252 48.3447 24.8859 48.648 24.9979 48.928C25.1192 49.1987 25.2919 49.418 25.5159 49.586C25.7492 49.754 26.0246 49.838 26.3419 49.838C26.6032 49.838 26.8226 49.8007 26.9999 49.726C27.1772 49.642 27.3219 49.5487 27.4339 49.446C27.5459 49.3433 27.6252 49.2593 27.6719 49.194C27.7559 49.082 27.8212 49.0167 27.8679 48.998C27.9239 48.97 28.0032 48.956 28.1059 48.956H29.3099C29.4032 48.956 29.4779 48.984 29.5339 49.04C29.5992 49.096 29.6272 49.166 29.6179 49.25C29.6086 49.3993 29.5292 49.5813 29.3799 49.796C29.2399 50.0107 29.0346 50.2207 28.7639 50.426C28.4932 50.6313 28.1526 50.804 27.7419 50.944C27.3406 51.0747 26.8786 51.14 26.3559 51.14ZM24.8159 46.73H27.9099V46.688C27.9099 46.324 27.8492 46.0067 27.7279 45.736C27.6066 45.4653 27.4292 45.2507 27.1959 45.092C26.9626 44.9333 26.6826 44.854 26.3559 44.854C26.0292 44.854 25.7492 44.9333 25.5159 45.092C25.2826 45.2507 25.1052 45.4653 24.9839 45.736C24.8719 46.0067 24.8159 46.324 24.8159 46.688V46.73ZM34.002 51.14C33.5166 51.14 33.0873 51.0607 32.714 50.902C32.35 50.734 32.0466 50.5007 31.804 50.202C31.5613 49.9033 31.3746 49.5533 31.244 49.152C31.1133 48.7413 31.0386 48.2933 31.02 47.808C31.0106 47.64 31.006 47.4907 31.006 47.36C31.006 47.22 31.0106 47.066 31.02 46.898C31.0386 46.4313 31.1086 45.9973 31.23 45.596C31.3606 45.1947 31.5473 44.8447 31.79 44.546C32.042 44.238 32.35 44 32.714 43.832C33.0873 43.664 33.5166 43.58 34.002 43.58C34.506 43.58 34.9306 43.6687 35.276 43.846C35.6306 44.014 35.9246 44.2333 36.158 44.504V41.396C36.158 41.3027 36.186 41.2233 36.242 41.158C36.3073 41.0927 36.3913 41.06 36.494 41.06H37.684C37.7773 41.06 37.8566 41.0927 37.922 41.158C37.9873 41.2233 38.02 41.3027 38.02 41.396V50.664C38.02 50.7573 37.9873 50.8367 37.922 50.902C37.8566 50.9673 37.7773 51 37.684 51H36.578C36.4753 51 36.3913 50.9673 36.326 50.902C36.27 50.8367 36.242 50.7573 36.242 50.664V50.146C36.0086 50.4353 35.71 50.6733 35.346 50.86C34.9913 51.0467 34.5433 51.14 34.002 51.14ZM34.52 49.642C34.912 49.642 35.2246 49.5533 35.458 49.376C35.6913 49.1987 35.864 48.9747 35.976 48.704C36.088 48.424 36.1486 48.1393 36.158 47.85C36.1673 47.682 36.172 47.5047 36.172 47.318C36.172 47.122 36.1673 46.94 36.158 46.772C36.1486 46.492 36.0833 46.226 35.962 45.974C35.8406 45.7127 35.6633 45.498 35.43 45.33C35.1966 45.162 34.8933 45.078 34.52 45.078C34.128 45.078 33.8153 45.1667 33.582 45.344C33.358 45.512 33.1946 45.736 33.092 46.016C32.9893 46.296 32.9286 46.604 32.91 46.94C32.9006 47.22 32.9006 47.5 32.91 47.78C32.9286 48.116 32.9893 48.424 33.092 48.704C33.1946 48.984 33.358 49.2127 33.582 49.39C33.8153 49.558 34.128 49.642 34.52 49.642ZM43.0219 51.14C41.9859 51.14 41.1646 50.8413 40.5579 50.244C39.9512 49.6467 39.6246 48.7973 39.5779 47.696C39.5686 47.6027 39.5639 47.486 39.5639 47.346C39.5639 47.1967 39.5686 47.08 39.5779 46.996C39.6152 46.296 39.7739 45.6893 40.0539 45.176C40.3432 44.6627 40.7399 44.2707 41.2439 44C41.7479 43.72 42.3406 43.58 43.0219 43.58C43.7779 43.58 44.4126 43.7387 44.9259 44.056C45.4392 44.364 45.8266 44.798 46.0879 45.358C46.3492 45.9087 46.4799 46.548 46.4799 47.276V47.57C46.4799 47.6633 46.4472 47.7427 46.3819 47.808C46.3166 47.8733 46.2326 47.906 46.1299 47.906H41.4819C41.4819 47.906 41.4819 47.92 41.4819 47.948C41.4819 47.976 41.4819 47.9993 41.4819 48.018C41.4912 48.3447 41.5519 48.648 41.6639 48.928C41.7852 49.1987 41.9579 49.418 42.1819 49.586C42.4152 49.754 42.6906 49.838 43.0079 49.838C43.2692 49.838 43.4886 49.8007 43.6659 49.726C43.8432 49.642 43.9879 49.5487 44.0999 49.446C44.2119 49.3433 44.2912 49.2593 44.3379 49.194C44.4219 49.082 44.4872 49.0167 44.5339 48.998C44.5899 48.97 44.6692 48.956 44.7719 48.956H45.9759C46.0692 48.956 46.1439 48.984 46.1999 49.04C46.2652 49.096 46.2932 49.166 46.2839 49.25C46.2746 49.3993 46.1952 49.5813 46.0459 49.796C45.9059 50.0107 45.7006 50.2207 45.4299 50.426C45.1592 50.6313 44.8186 50.804 44.4079 50.944C44.0066 51.0747 43.5446 51.14 43.0219 51.14ZM41.4819 46.73H44.5759V46.688C44.5759 46.324 44.5152 46.0067 44.3939 45.736C44.2726 45.4653 44.0952 45.2507 43.8619 45.092C43.6286 44.9333 43.3486 44.854 43.0219 44.854C42.6952 44.854 42.4152 44.9333 42.1819 45.092C41.9486 45.2507 41.7712 45.4653 41.6499 45.736C41.5379 46.0067 41.4819 46.324 41.4819 46.688V46.73Z" fill="#808DB2"/>
</svg>
